<?xml version="1.0" encoding="UTF-8"?>
<svg xmlns="http://www.w3.org/2000/svg" xmlns:xlink="http://www.w3.org/1999/xlink" width="2388.9pt" height="732pt" viewBox="0 0 2388.9 732" version="1.1">
<defs>
<clipPath id="clip1">
  <path d="M 0 0 L 2388.898438 0 L 2388.898438 402 L 0 402 Z M 0 0 "/>
</clipPath>
</defs>
<g id="surface1">
<g clip-path="url(#clip1)" clip-rule="nonzero">
<path style=" stroke:none;fill-rule:evenodd;fill:rgb(5.883789%,5.883789%,34.910583%);fill-opacity:1;" d="M 175.621094 1.800781 C 212.917969 -1.136719 251.410156 4.472656 285.238281 20.859375 C 294.539063 25.523438 304.871094 30.871094 308.957031 41.109375 C 314.960938 54.851563 305.570313 72.382813 291.117188 75.660156 C 285.308594 76.78125 279.160156 76.511719 273.570313 74.511719 C 269.230469 73.085938 265.410156 70.511719 261.21875 68.75 C 236.839844 57.648438 209.46875 54.730469 182.960938 56.359375 C 153.007813 58.589844 123.628906 70.992188 102.289063 92.320313 C 79.851563 114.289063 66.71875 144.519531 62.558594 175.390625 C 58.300781 207.171875 61.621094 240.492188 75.121094 269.789063 C 86.230469 294.03125 104.988281 314.738281 128.339844 327.691406 C 151.238281 340.609375 177.820313 346.160156 203.980469 345.761719 C 229.398438 345.71875 254.941406 339.128906 276.667969 325.800781 C 284.089844 321.191406 293.5 319.671875 301.910156 322.222656 C 310.039063 324.691406 317.019531 331.492188 318.828125 339.910156 C 321.449219 351.101563 315.1875 362.699219 305.980469 368.910156 C 278.109375 388.0625 244.578125 398.011719 211.019531 400.230469 C 182.332031 401.878906 153.179688 398.609375 125.890625 389.441406 C 95.148438 379.179688 67 360.808594 46.101563 335.949219 C 22.648438 308.449219 8.558594 273.761719 3.308594 238.179688 C 0.320313 217.941406 -0.191406 197.351563 1.71875 176.992188 C 5.089844 140.601563 17.328125 104.671875 39.140625 75.160156 C 59.199219 47.761719 87.390625 26.542969 119.101563 14.472656 C 137.179688 7.492188 156.308594 3.371094 175.621094 1.800781 Z M 415.800781 8.769531 C 425.289063 -0.0078125 440.660156 -1.578125 451.609375 5.402344 C 459.421875 10.132813 464.9375 18.710938 465.480469 27.882813 C 465.601563 76.851563 465.378906 125.832031 465.578125 174.800781 C 528.1875 174.722656 590.808594 174.710938 653.417969 174.800781 C 653.597656 126.179688 653.4375 77.550781 653.488281 28.9375 C 653.558594 20.820313 657.648438 12.941406 663.929688 7.882813 C 671.6875 1.453125 682.796875 -0.734375 692.367188 2.480469 C 702.058594 5.554688 709.9375 13.980469 712.039063 23.960938 C 713.089844 28.5625 712.6875 33.300781 712.757813 37.972656 C 712.757813 148.640625 712.734375 259.3125 712.757813 369.988281 C 712.878906 377.160156 710.699219 384.46875 706.019531 389.980469 C 699.617188 397.929688 688.898438 401.96875 678.839844 400.351563 C 665.089844 398.609375 653.4375 386.089844 653.488281 372.101563 C 653.53125 325.171875 653.4375 278.242188 653.53125 231.3125 C 590.890625 231.109375 528.25 231.410156 465.609375 231.160156 C 465.359375 275.429688 465.578125 319.710938 465.5 363.992188 C 465.398438 368.988281 465.980469 374.109375 464.578125 379 C 461.957031 389.210938 453.328125 397.550781 443.058594 399.878906 C 431.539063 402.710938 418.570313 397.980469 411.75 388.25 C 408.140625 383.300781 406.300781 377.191406 406.25 371.082031 C 406.230469 257.71875 406.257813 144.359375 406.238281 31 C 406.039063 22.652344 409.480469 14.28125 415.800781 8.769531 Z M 1271.191406 16.082031 C 1277.828125 3.28125 1294.691406 -2.527344 1307.878906 3.210938 C 1316.71875 6.402344 1321.628906 14.8125 1327.28125 21.710938 C 1397.441406 110.722656 1467.558594 199.773438 1537.761719 288.761719 C 1537.71875 202.480469 1537.78125 116.210938 1537.71875 29.933594 C 1537.660156 20.613281 1542.539063 11.511719 1550.210938 6.242188 C 1559.570313 -0.480469 1572.96875 -0.707031 1582.609375 5.570313 C 1590.441406 10.652344 1595.878906 19.542969 1595.980469 28.960938 C 1596.011719 139.96875 1595.988281 250.992188 1595.988281 362 C 1595.738281 368.480469 1596.859375 375.21875 1594.5 381.441406 C 1591.949219 389.0625 1586.058594 395.480469 1578.671875 398.660156 C 1568 403.429688 1554.5 401.101563 1546.289063 392.691406 C 1543.039063 389.222656 1540.308594 385.3125 1537.371094 381.601563 C 1466.898438 291.402344 1396.488281 201.152344 1326.011719 110.972656 C 1325.980469 197.980469 1326.019531 284.992188 1325.988281 372 C 1326 381.269531 1321.328125 390.371094 1313.738281 395.699219 C 1303.101563 403.550781 1286.988281 402.78125 1277.308594 393.710938 C 1270.839844 388.101563 1267.328125 379.558594 1267.488281 371.039063 C 1267.5 260.371094 1267.488281 149.699219 1267.5 39.03125 C 1267.371094 31.273438 1267.058594 22.992188 1271.191406 16.082031 Z M 1812.410156 12.511719 C 1850.769531 -1.277344 1892.980469 -1.929688 1932.578125 6.53125 C 1951.941406 10.871094 1970.710938 18.050781 1987.738281 28.269531 C 1994.109375 32.171875 1999.101563 38.550781 2000.628906 45.929688 C 2002.371094 54.152344 1999.589844 62.921875 1994.269531 69.269531 C 1985.558594 79.332031 1969.96875 80.28125 1958.640625 74.441406 C 1939.359375 64.019531 1917.761719 58.199219 1895.941406 56.851563 C 1872.820313 55.382813 1849.230469 58.691406 1827.921875 67.902344 C 1801.730469 79.019531 1779.980469 99.742188 1766.988281 125.011719 C 1756.199219 145.652344 1750.960938 168.851563 1749.890625 192.023438 C 1748.359375 226.660156 1755.25 262.792969 1775.289063 291.660156 C 1784.75 305.363281 1797.078125 317.089844 1811.308594 325.761719 C 1827.890625 335.96875 1846.839844 341.960938 1866.101563 344.339844 C 1888.421875 347.230469 1911.25 345.152344 1932.78125 338.660156 C 1948.988281 333.769531 1964.980469 326.832031 1977.980469 315.761719 C 1978.011719 289.511719 1977.980469 263.25 1978 237 C 1944.671875 237 1911.359375 236.992188 1878.039063 237.011719 C 1863.679688 236.871094 1851.371094 223.269531 1851.949219 209.050781 C 1851.71875 195.0625 1863.878906 181.890625 1878.03125 181.742188 C 1918 181.761719 1957.980469 181.742188 1997.980469 181.75 C 2002.828125 181.839844 2007.808594 181.28125 2012.558594 182.691406 C 2022.761719 185.53125 2031.050781 194.472656 2032.898438 204.921875 C 2033.738281 208.902344 2033.460938 212.972656 2033.519531 217 C 2033.488281 250 2033.519531 283.011719 2033.519531 316.011719 C 2033.328125 323.332031 2034.160156 330.820313 2032.148438 337.972656 C 2029.960938 346.289063 2024.621094 353.660156 2017.71875 358.730469 C 2002.53125 370.191406 1985.371094 378.832031 1967.640625 385.550781 C 1945.621094 393.761719 1922.480469 399.070313 1899.03125 400.691406 C 1859.269531 402.8125 1818.300781 396.101563 1783.039063 377.011719 C 1754.550781 361.78125 1730.671875 338.222656 1714.988281 310 C 1694.75 274.011719 1687.460938 231.890625 1689.03125 190.960938 C 1690.539063 150.421875 1702.878906 109.855469 1726.828125 76.871094 C 1747.949219 47.390625 1778.25 24.652344 1812.410156 12.511719 Z M 2139.160156 8.230469 C 2144.378906 4.671875 2150.691406 3.242188 2156.949219 3.261719 C 2223.640625 3.222656 2290.339844 3.261719 2357.03125 3.242188 C 2362.578125 3.230469 2368.300781 3.910156 2373.28125 6.59375 C 2381.941406 10.933594 2387.949219 19.878906 2388.988281 29.492188 L 2388.988281 35.53125 C 2387.730469 49.589844 2375.140625 61.519531 2361 61.722656 C 2302.179688 61.8125 2243.339844 61.722656 2184.511719 61.761719 C 2184.488281 99.339844 2184.488281 136.910156 2184.511719 174.492188 C 2230.671875 174.492188 2276.828125 174.511719 2323 174.480469 C 2330.21875 174.269531 2337.730469 175.851563 2343.46875 180.480469 C 2353.910156 188.332031 2357.140625 203.75 2351.308594 215.320313 C 2346.839844 224.382813 2337.269531 230.890625 2327.070313 230.992188 C 2279.640625 231.019531 2232.179688 230.980469 2184.738281 231.011719 C 2184.738281 267.832031 2184.738281 304.660156 2184.738281 341.492188 C 2242.851563 341.5 2300.949219 341.5 2359.050781 341.480469 C 2373.851563 340.789063 2387.539063 352.820313 2388.988281 367.511719 L 2388.988281 373.640625 C 2387.949219 384.222656 2380.738281 393.921875 2370.820313 397.8125 C 2364.898438 400.339844 2358.320313 400 2352.03125 400.011719 C 2287 399.992188 2221.980469 400.011719 2156.96875 400 C 2151.660156 400.019531 2146.28125 399.0625 2141.609375 396.46875 C 2132.328125 391.671875 2126.160156 381.488281 2126.21875 371.039063 C 2126.25 258.03125 2126.230469 145.023438 2126.230469 32.011719 C 2126.230469 22.59375 2131.261719 13.363281 2139.160156 8.230469 Z M 2139.160156 8.230469 "/>
</g>
<path style=" stroke:none;fill-rule:evenodd;fill:rgb(95.701599%,16.479492%,30.200195%);fill-opacity:1;" d="M 972.96875 6.941406 C 981.179688 -0.390625 993.988281 -1.917969 1003.660156 3.421875 C 1008.539063 5.972656 1012.558594 10.101563 1015.101563 15 C 1073.25 127.472656 1131.410156 239.929688 1189.570313 352.402344 C 1192.21875 357.789063 1195.75 362.980469 1196.421875 369.101563 C 1198.03125 379.679688 1192.601563 390.902344 1183.328125 396.230469 C 1179.019531 398.800781 1173.980469 400.019531 1168.980469 400.011719 C 1125.308594 399.96875 1081.640625 400.039063 1037.980469 399.96875 C 1025.300781 399.832031 1013.738281 389.609375 1012.058594 377.050781 C 1010 365.429688 1016.558594 353.089844 1027.28125 348.199219 C 1031.21875 346.28125 1035.640625 345.542969 1040 345.730469 C 1068.289063 345.761719 1096.578125 345.769531 1124.871094 345.730469 C 1082.648438 264.089844 1040.449219 182.441406 998.21875 100.8125 C 995.648438 96.121094 993.566406 91.160156 990.648438 86.671875 C 945.9375 173.089844 900.957031 259.371094 856.117188 345.730469 C 885.078125 345.78125 914.046875 345.742188 943.007813 345.742188 C 954.378906 345.75 964.925781 354.089844 968.027344 364.953125 C 971.207031 375.082031 967.738281 386.921875 959.507813 393.652344 C 954.667969 397.78125 948.339844 399.980469 942 400 C 898.679688 400.011719 855.359375 399.992188 812.039063 400.011719 C 803.46875 400.179688 794.878906 396.191406 789.746094 389.273438 C 783.578125 381.339844 782.519531 369.96875 786.90625 360.960938 C 846.078125 247.101563 905.25 133.242188 964.417969 19.382813 C 966.648438 14.871094 969.019531 10.234375 972.96875 6.941406 Z M 1515.621094 544.839844 C 1530.621094 543.21875 1546.03125 544.699219 1560.21875 549.878906 C 1566.660156 552.449219 1573.941406 555.058594 1577.640625 561.371094 C 1582.769531 569.699219 1578.410156 581.929688 1569.378906 585.46875 C 1563.421875 587.960938 1556.660156 586.660156 1551 584.011719 C 1532.96875 576.378906 1510.671875 577.691406 1494.859375 589.761719 C 1482.679688 599.019531 1475.808594 613.878906 1474.269531 628.878906 C 1472.171875 646.589844 1476.351563 665.871094 1488.820313 679.140625 C 1503.078125 694.351563 1526.148438 699.238281 1545.960938 694.109375 C 1554.171875 692.238281 1561.320313 686.582031 1570.011719 686.730469 C 1578.570313 686.679688 1586.101563 694.5 1586.03125 703.011719 C 1586.578125 709.609375 1582.5 715.78125 1577.019531 719.140625 C 1566.898438 725.75 1555.039063 729.269531 1543.089844 730.441406 C 1524.160156 732.238281 1504.480469 730.761719 1486.890625 723.039063 C 1469.601563 715.730469 1454.941406 702.371094 1446.21875 685.71875 C 1435.769531 666 1433.121094 642.800781 1436.191406 620.871094 C 1438.828125 601.859375 1447.019531 583.308594 1460.789063 569.738281 C 1475.230469 555.058594 1495.308594 546.832031 1515.621094 544.839844 Z M 323.070313 550.109375 C 329.320313 544.691406 339.238281 544.238281 345.988281 548.988281 C 350.851563 552.28125 353.6875 558.109375 353.738281 563.941406 C 353.78125 582.121094 353.738281 600.308594 353.761719 618.492188 C 378.339844 618.5 402.910156 618.5 427.488281 618.492188 C 427.488281 600.640625 427.507813 582.789063 427.476563 564.941406 C 427.398438 560.710938 428.460938 556.339844 431.121094 552.980469 C 436.5 545.460938 447.761719 543.5625 455.550781 548.320313 C 460.890625 551.558594 464.410156 557.628906 464.257813 563.921875 C 464.238281 613.28125 464.238281 662.640625 464.257813 712.011719 C 464.359375 717.988281 461.320313 724.039063 456.269531 727.308594 C 451.539063 730.558594 445.277344 731.039063 439.871094 729.441406 C 432.796875 727.261719 427.707031 720.289063 427.519531 712.929688 C 427.457031 693.121094 427.519531 673.308594 427.488281 653.511719 C 402.910156 653.5 378.339844 653.5 353.761719 653.511719 C 353.761719 671.660156 353.738281 689.820313 353.769531 707.96875 C 354.097656 713.898438 353.179688 720.441406 348.6875 724.75 C 341.578125 732.539063 327.800781 732.089844 321.050781 724.058594 C 318.230469 720.710938 316.558594 716.371094 316.738281 711.96875 C 316.769531 662.308594 316.730469 612.660156 316.757813 563 C 316.871094 558.058594 319.28125 553.261719 323.070313 550.109375 Z M 754.257813 550.261719 C 761.566406 544.121094 773.386719 544.128906 780.546875 550.539063 C 784.828125 554.28125 787.050781 559.667969 789.136719 564.820313 C 809.027344 611.578125 828.925781 658.339844 848.808594 705.101563 C 850.328125 708.660156 851.167969 712.640625 850.367188 716.5 C 848.910156 724.480469 841.148438 730.839844 832.96875 730.300781 C 825.878906 730.691406 818.660156 726.667969 815.839844 720.050781 C 810.996094 708.582031 806.328125 697.039063 801.609375 685.511719 C 778.109375 685.488281 754.597656 685.511719 731.089844 685.5 C 727.046875 695.648438 722.867188 705.738281 718.777344 715.878906 C 717.277344 719.460938 716.046875 723.410156 713.039063 726.070313 C 708.027344 730.691406 700.289063 731.347656 694.078125 729.097656 C 685.558594 725.859375 681.019531 715.128906 684.890625 706.800781 C 705.539063 658.171875 726.277344 609.570313 746.9375 560.941406 C 748.617188 556.941406 750.878906 553.050781 754.257813 550.261719 Z M 766.4375 599.359375 C 759.417969 616.398438 752.4375 633.449219 745.449219 650.5 C 759.398438 650.488281 773.347656 650.488281 787.289063 650.5 C 780.308594 633.46875 773.476563 616.371094 766.4375 599.359375 Z M 909.128906 549.140625 C 915.808594 544.371094 925.699219 544.5625 931.996094 549.921875 C 936.160156 553.320313 938.570313 558.640625 938.507813 564.011719 C 938.5 607.078125 938.5 650.160156 938.507813 693.238281 C 956.667969 693.238281 974.828125 693.25 992.996094 693.238281 C 997.660156 693.230469 1002.578125 692.96875 1006.898438 695.058594 C 1012.960938 697.851563 1017.601563 704.167969 1017.300781 711 C 1017.449219 717.808594 1012.820313 724.089844 1006.710938 726.78125 C 1003.039063 728.449219 998.90625 728.480469 994.957031 728.511719 C 970.097656 728.460938 945.238281 728.578125 920.378906 728.449219 C 914.257813 728.46875 907.976563 725.71875 904.617188 720.460938 C 902.347656 717.121094 901.328125 713.050781 901.476563 709.039063 C 901.507813 660.671875 901.488281 612.308594 901.488281 563.941406 C 901.449219 558.152344 904.320313 552.398438 909.128906 549.140625 Z M 1237.960938 552.960938 C 1244.179688 544.378906 1257.941406 543.269531 1265.558594 550.550781 C 1269.230469 553.980469 1271.488281 558.980469 1271.269531 564.039063 C 1271.21875 582.191406 1271.269531 600.339844 1271.238281 618.480469 C 1295.898438 618.511719 1320.558594 618.492188 1345.238281 618.492188 C 1345.25 599.96875 1345.238281 581.449219 1345.238281 562.941406 C 1345.25 559.0625 1346.871094 555.320313 1349.269531 552.332031 C 1354.101563 546.210938 1363.011719 544.160156 1370.199219 546.878906 C 1377.210938 549.371094 1381.980469 556.519531 1381.96875 563.902344 C 1382.03125 612.910156 1381.96875 661.929688 1382.011719 710.941406 C 1382.128906 716.261719 1380.261719 721.730469 1376.289063 725.371094 C 1371.058594 730.519531 1362.671875 731.660156 1356.03125 728.871094 C 1349.78125 726.25 1345.300781 719.820313 1345.238281 713.011719 C 1345.238281 693.179688 1345.25 673.339844 1345.238281 653.511719 C 1320.558594 653.511719 1295.898438 653.488281 1271.25 653.511719 C 1271.25 673.320313 1271.238281 693.128906 1271.25 712.941406 C 1271.21875 719.691406 1266.851563 726.089844 1260.691406 728.78125 C 1252.089844 732.648438 1240.578125 729.289063 1236.390625 720.589844 C 1234.058594 716.441406 1234.160156 711.558594 1234.238281 706.960938 C 1234.25 661.308594 1234.25 615.671875 1234.238281 570.019531 C 1234.03125 564.167969 1234.101563 557.75 1237.960938 552.960938 Z M 1694.859375 547.800781 C 1702.261719 544.238281 1712.03125 545.109375 1717.980469 551.070313 C 1722.140625 554.929688 1724.148438 560.359375 1726.328125 565.460938 C 1746.230469 612.359375 1766.238281 659.230469 1786.140625 706.140625 C 1788.828125 712.558594 1787.621094 720.640625 1782.421875 725.460938 C 1776.960938 731.011719 1767.96875 731.550781 1761.089844 728.570313 C 1756.679688 726.628906 1753.558594 722.589844 1751.921875 718.160156 C 1747.421875 707.269531 1742.988281 696.351563 1738.460938 685.480469 C 1714.980469 685.53125 1691.519531 685.488281 1668.039063 685.511719 C 1663.109375 697.449219 1658.390625 709.488281 1653.378906 721.410156 C 1649.46875 729.871094 1638.300781 732.398438 1630.269531 728.78125 C 1624.589844 726.148438 1620.488281 720.261719 1620.46875 713.949219 C 1620.179688 709.339844 1622.519531 705.210938 1624.210938 701.101563 C 1644.089844 654.328125 1664.019531 607.582031 1683.910156 560.820313 C 1686.089844 555.5 1689.589844 550.429688 1694.859375 547.800781 Z M 1682.359375 650.480469 C 1696.308594 650.519531 1710.25 650.488281 1724.21875 650.488281 C 1717.230469 633.429688 1710.25 616.371094 1703.429688 599.261719 C 1696.320313 616.300781 1689.390625 633.410156 1682.359375 650.480469 Z M 1849.910156 547.019531 C 1864.320313 546.832031 1878.699219 546.402344 1893.089844 546.523438 C 1909.328125 547.109375 1926.691406 550.519531 1939.140625 561.769531 C 1948.789063 570.378906 1953.789063 583.167969 1954.890625 595.878906 C 1956.460938 610.671875 1953.5 626.378906 1944.429688 638.421875 C 1939.039063 645.730469 1931.628906 651.359375 1923.441406 655.179688 C 1935.460938 670.898438 1947.429688 686.671875 1959.429688 702.441406 C 1963.820313 708.28125 1964.351563 716.941406 1959.988281 722.960938 C 1954.039063 731.761719 1939.890625 732.96875 1932.511719 725.339844 C 1927.738281 720.339844 1924.089844 714.417969 1919.890625 708.96875 C 1908.539063 693.570313 1897.210938 678.171875 1885.890625 662.75 C 1880.308594 662.761719 1874.78125 662.738281 1869.25 662.761719 C 1869.261719 678.519531 1869.21875 694.269531 1869.261719 710.03125 C 1869.480469 715.652344 1867.800781 721.601563 1863.480469 725.429688 C 1855.941406 732.851563 1842.03125 731.761719 1835.808594 723.179688 C 1832.878906 719.480469 1831.890625 714.648438 1832.230469 710.03125 C 1832.261719 663.339844 1832.230469 616.652344 1832.230469 569.96875 C 1832.269531 566.089844 1831.789063 562.042969 1833.421875 558.390625 C 1835.960938 551.71875 1842.769531 547.023438 1849.910156 547.023438 Z M 1869.210938 582.050781 C 1869.289063 597.28125 1869.210938 612.519531 1869.25 627.75 C 1875.839844 627.699219 1882.449219 627.839844 1889.070313 627.699219 C 1896.960938 627.121094 1905.25 624.730469 1910.828125 618.820313 C 1917.019531 612.421875 1917.871094 602.242188 1914.699219 594.210938 C 1912.160156 587.839844 1905.691406 584.058594 1899.25 582.742188 C 1889.359375 580.640625 1879.191406 581.671875 1869.210938 582.050781 Z M 528.757813 563 C 528.859375 554.152344 537.179688 546.609375 545.960938 546.992188 C 570.660156 547.039063 595.359375 546.941406 620.058594 547.039063 C 628.148438 547.167969 635.308594 553.960938 636.078125 561.980469 C 637.726563 571.589844 630.058594 581.832031 620.097656 581.96875 C 601.988281 582.039063 583.867188 581.96875 565.757813 582 C 565.757813 594.410156 565.75 606.828125 565.757813 619.242188 C 581.1875 619.261719 596.617188 619.210938 612.058594 619.261719 C 618.347656 619.339844 624.398438 623.21875 626.996094 628.96875 C 630.617188 636.25 628.46875 645.96875 621.917969 650.859375 C 619.097656 652.992188 615.628906 654.300781 612.066406 654.25 C 596.636719 654.25 581.199219 654.25 565.757813 654.25 C 565.75 667.25 565.75 680.238281 565.757813 693.238281 C 584.1875 693.261719 602.628906 693.21875 621.058594 693.261719 C 626.457031 693.238281 631.949219 695.570313 635.199219 699.980469 C 640.789063 707.191406 639.648438 718.621094 632.578125 724.449219 C 628.898438 727.730469 623.828125 728.589844 619.050781 728.511719 C 594.738281 728.460938 570.429688 728.570313 546.117188 728.460938 C 539.347656 728.488281 532.628906 724.460938 530.050781 718.101563 C 528.328125 714.667969 528.777344 710.75 528.738281 707.050781 C 528.757813 659.03125 528.738281 611.019531 528.757813 563 Z M 1031.429688 560.871094 C 1032.738281 553.101563 1040.03125 546.851563 1047.960938 547 C 1086.980469 547 1126 547 1165.03125 547 C 1172.230469 546.929688 1179.039063 552.101563 1180.988281 559.03125 C 1183.269531 566.289063 1180.53125 574.890625 1174.148438 579.160156 C 1171.191406 581.179688 1167.578125 582.101563 1164.03125 582.019531 C 1151.019531 581.980469 1138.011719 582.011719 1125 582 C 1125 625.019531 1124.988281 668.050781 1125.011719 711.070313 C 1125.140625 716.339844 1123.308594 721.78125 1119.320313 725.359375 C 1112.160156 732.46875 1099.25 731.859375 1092.578125 724.378906 C 1089.851563 721.28125 1088.03125 717.28125 1088 713.109375 C 1087.988281 669.410156 1088 625.699219 1088 582 C 1074.648438 581.992188 1061.300781 582.011719 1047.949219 582 C 1041.851563 582.039063 1035.929688 578.410156 1033.191406 572.960938 C 1031.148438 569.300781 1030.878906 564.941406 1031.429688 560.871094 Z M 2016.210938 557.269531 C 2018.808594 551.089844 2025.28125 546.800781 2032.03125 547 C 2056.679688 547.019531 2081.351563 546.972656 2106.019531 547.019531 C 2115.679688 546.972656 2123.519531 556.5 2122.359375 565.941406 C 2121.929688 574.371094 2114.660156 581.921875 2106.101563 581.96875 C 2087.980469 582.039063 2069.851563 581.980469 2051.738281 582 C 2051.738281 594.410156 2051.738281 606.828125 2051.738281 619.242188 C 2067.179688 619.261719 2082.628906 619.21875 2098.070313 619.261719 C 2104.089844 619.261719 2109.898438 622.769531 2112.800781 628.039063 C 2117.300781 636.171875 2114.480469 647.660156 2106.191406 652.160156 C 2102.25 654.601563 2097.488281 654.308594 2093.078125 654.261719 C 2079.289063 654.238281 2065.519531 654.261719 2051.738281 654.25 C 2051.730469 667.238281 2051.738281 680.238281 2051.738281 693.238281 C 2068.480469 693.238281 2085.199219 693.25 2101.941406 693.238281 C 2107.941406 692.980469 2114.75 693.238281 2119.351563 697.730469 C 2126.890625 704.417969 2126.691406 717.53125 2119.140625 724.140625 C 2115.621094 727.417969 2110.738281 728.53125 2106.058594 728.5 C 2082.371094 728.519531 2058.671875 728.488281 2034.980469 728.507813 C 2030.878906 728.5 2026.519531 728.210938 2023.011719 725.910156 C 2017.800781 722.859375 2014.691406 716.929688 2014.761719 710.949219 C 2014.710938 664.308594 2014.761719 617.667969 2014.75 571.03125 C 2014.800781 566.441406 2014.261719 561.578125 2016.210938 557.269531 Z M 2016.210938 557.269531 "/>
</g>
</svg>
