<?xml version="1.0" encoding="utf-8"?>
<!-- Generator: Adobe Illustrator 26.3.1, SVG Export Plug-In . SVG Version: 6.00 Build 0)  -->
<svg version="1.1" id="Layer_1" xmlns="http://www.w3.org/2000/svg" xmlns:xlink="http://www.w3.org/1999/xlink" x="0px" y="0px"
	 viewBox="0 0 521.7 85.3" style="enable-background:new 0 0 521.7 85.3;" xml:space="preserve">
<style type="text/css">
	.st0{clip-path:url(#SVGID_00000145755945836248198290000015713592967949452209_);fill:#006C67;}
</style>
<g>
	<defs>
		<rect id="SVGID_1_" y="0" width="521.7" height="85.3"/>
	</defs>
	<clipPath id="SVGID_00000142133821710031855050000003529481147356534706_">
		<use xlink:href="#SVGID_1_"  style="overflow:visible;"/>
	</clipPath>
	<path style="clip-path:url(#SVGID_00000142133821710031855050000003529481147356534706_);fill:#006C67;" d="M127.1,55.6
		c-2.6,7-8.9,13.1-16.6,13.1C95.6,68.7,90,50.3,90,35.3c0-11.5,4.9-25.2,16.7-25.2c9.2,0,15.3,9.6,19.7,17.9l3.7-0.9l-4.7-20.9
		c-2.6,1.2-5.5,2-7,2c-1.3,0-3.3-0.5-5.5-1.1c-2.1-0.6-4.4-1-7-1c-18.1,0-27.5,20.3-27.5,36.9c0,18.3,10,33.5,27.3,33.5
		c11.8,0,20.8-8.5,24.7-19.9L127.1,55.6z"/>
	<polygon style="clip-path:url(#SVGID_00000142133821710031855050000003529481147356534706_);fill:#006C67;" points="186.8,11.5 
		192.1,10.8 192.1,7.7 169.7,7.7 169.7,10.8 175.1,11.5 175.1,37.8 147.8,37.8 147.8,11.5 153.2,10.8 153.2,7.7 130.8,7.7 
		130.8,10.8 136.1,11.5 136.1,71.3 130.8,72.1 130.8,75.2 153.2,75.2 153.2,72.1 147.8,71.3 147.8,41.8 175.1,41.8 175.1,71.3 
		169.7,72.1 169.7,75.2 192.1,75.2 192.1,72.1 186.8,71.3 	"/>
	<path style="clip-path:url(#SVGID_00000142133821710031855050000003529481147356534706_);fill:#006C67;" d="M232.5,6.2
		c-2.1,1.3-4.6,2-6.7,2c-1.8,0-3.5-0.5-5.3-1.1c-1.8-0.6-3.9-1-6.8-1c-11.2,0-18.5,8.7-18.5,17.7c0,26.9,35.4,19,35.4,37.2
		c0,6.5-5.7,11.7-12.2,11.7c-10.8,0-18.2-9.3-22.6-18.6l-3.7,0.5l3.7,20.6c2-0.8,4.1-1.6,6.2-1.6c3.3,0,8.6,3.1,15.7,3.1
		c11.7,0,21.2-8.3,21.2-20.1C239.1,30,203,39,203,20c0-6,4.3-9.9,11.3-9.9c9.5,0,15,9.8,18.4,17.1l3.4-0.9L232.5,6.2z"/>
	<path style="clip-path:url(#SVGID_00000142133821710031855050000003529481147356534706_);fill:#006C67;" d="M48.8,0
		c-2.9,0-5.2,2.3-5.2,5.2v14.4c0,2.9,2.3,5.2,5.2,5.2h8c2.9,0,5.2-2.3,5.2-5.2V5.2C62,2.3,59.7,0,56.8,0H48.8z M46,19.6V5.2
		c0-1.6,1.3-2.8,2.8-2.8h8c1.5,0,2.8,1.3,2.8,2.8v14.4c0,1.5-1.3,2.8-2.8,2.8h-8C47.3,22.4,46,21.1,46,19.6"/>
	<path style="clip-path:url(#SVGID_00000142133821710031855050000003529481147356534706_);fill:#006C67;" d="M48.8,28
		c-2.9,0-5.2,2.3-5.2,5.2v14.4c0,2.9,2.3,5.2,5.2,5.2h8c2.9,0,5.2-2.3,5.2-5.2V33.2c0-2.9-2.3-5.2-5.2-5.2H48.8z M46,47.6V33.2
		c0-1.5,1.3-2.8,2.8-2.8h8c1.5,0,2.8,1.3,2.8,2.8v14.4c0,1.5-1.3,2.8-2.8,2.8h-8C47.3,50.4,46,49.2,46,47.6"/>
	<path style="clip-path:url(#SVGID_00000142133821710031855050000003529481147356534706_);fill:#006C67;" d="M48.8,56.1
		c-2.9,0-5.2,2.3-5.2,5.2v14.4c0,2.9,2.3,5.2,5.2,5.2h8c2.9,0,5.2-2.3,5.2-5.2V61.3c0-2.9-2.3-5.2-5.2-5.2H48.8z M46,75.7V61.3
		c0-1.5,1.3-2.8,2.8-2.8h8c1.5,0,2.8,1.3,2.8,2.8v14.4c0,1.5-1.3,2.8-2.8,2.8h-8C47.3,78.5,46,77.2,46,75.7"/>
	<path style="clip-path:url(#SVGID_00000142133821710031855050000003529481147356534706_);fill:#006C67;" d="M27.1,28
		c-2.9,0-5.2,2.3-5.2,5.2v14.4c0,2.9,2.3,5.2,5.2,5.2h8c2.9,0,5.2-2.3,5.2-5.2V33.2c0-2.9-2.3-5.2-5.2-5.2H27.1z M24.3,47.6V33.2
		c0-1.5,1.3-2.8,2.8-2.8h8c1.5,0,2.8,1.3,2.8,2.8v14.4c0,1.5-1.3,2.8-2.8,2.8h-8C25.5,50.4,24.3,49.2,24.3,47.6"/>
	<path style="clip-path:url(#SVGID_00000142133821710031855050000003529481147356534706_);fill:#006C67;" d="M27.1,56.1
		c-2.9,0-5.2,2.3-5.2,5.2v14.4c0,2.9,2.3,5.2,5.2,5.2h8c2.9,0,5.2-2.3,5.2-5.2V61.3c0-2.9-2.3-5.2-5.2-5.2H27.1z M24.3,75.7V61.3
		c0-1.5,1.3-2.8,2.8-2.8h8c1.5,0,2.8,1.3,2.8,2.8v14.4c0,1.5-1.3,2.8-2.8,2.8h-8C25.5,78.5,24.3,77.2,24.3,75.7"/>
	<path style="clip-path:url(#SVGID_00000142133821710031855050000003529481147356534706_);fill:#006C67;" d="M5.2,56.1
		c-2.9,0-5.2,2.3-5.2,5.2v14.4c0,2.9,2.3,5.2,5.2,5.2h8c2.9,0,5.2-2.3,5.2-5.2V61.3c0-2.9-2.3-5.2-5.2-5.2H5.2z M2.4,75.7V61.3
		c0-1.5,1.3-2.8,2.8-2.8h8c1.5,0,2.8,1.3,2.8,2.8v14.4c0,1.5-1.2,2.8-2.8,2.8h-8C3.7,78.5,2.4,77.2,2.4,75.7"/>
	<path style="clip-path:url(#SVGID_00000142133821710031855050000003529481147356534706_);fill:#006C67;" d="M281.8,13.2
		c-1.1-4.5-4.1-7.9-9.4-7.9c-2.1,0-4.6,0.8-6.4,2.6c-1.7,1.6-3.5,4.4-3.5,10.5c0,9.1,5.1,12.8,10.5,12.8c5.3,0,8.3-3,9.7-4.3
		l0.8,0.8c0,0.1-3.7,5.4-11.6,5.4c-6.9,0-14.3-4.1-14.3-14.7c0-9.6,7.2-14.7,14.5-14.7c3.8,0,6.6,1.4,7.5,1.4c0.2,0,1.6,0,2-1.4h0.9
		l0.4,9.6H281.8z"/>
	<path style="clip-path:url(#SVGID_00000142133821710031855050000003529481147356534706_);fill:#006C67;" d="M304.9,22.7
		c0,4.2-3,10.2-9.5,10.2c-5.5,0-9.4-4.4-9.4-10.2c0-5.3,3.5-9.9,9.2-9.9C300.9,12.8,304.9,16.5,304.9,22.7 M301,24
		c0-5.3-2.2-10-6.1-10c-2.7,0-5,2.2-5,6.7c0,3.2,1,11,6.1,11C298.2,31.7,301,30.1,301,24"/>
	<path style="clip-path:url(#SVGID_00000142133821710031855050000003529481147356534706_);fill:#006C67;" d="M309.8,18
		c0-2.7-0.8-2.7-1.5-2.7c-0.6,0-1,0.1-1.4,0.2v-0.7c2-0.6,4-1.2,6-1.9l0.3,0.1v3.2c2.5-1.9,4.3-3.3,6.6-3.3c2.8,0,4.1,1.8,4.6,3.6
		c0.9-1,3.5-3.6,6.9-3.6c4.4,0,5,4.5,5,7.6v8.8c0,0.9,0,2.2,1.8,2.5l1.1,0.1v0.6h-9.4v-0.6c2.1-0.3,2.8-0.3,2.8-3.1v-9
		c0-2.2,0-4.7-3.1-4.7c-2.3,0-3.8,1.2-4.7,2.6v10.8c0,3.3,1.3,3.4,3.1,3.4v0.6h-9.6v-0.6c1.9-0.1,2.9-0.3,2.9-3v-9.3
		c0-2.8-0.7-4.5-2.9-4.5c-2.9,0-4.9,2.3-4.9,2.5v12.1c0,2.1,1.4,2.2,2.9,2.2v0.6h-9.5v-0.6c1.7,0,3-0.1,3-3V18z"/>
	<path style="clip-path:url(#SVGID_00000142133821710031855050000003529481147356534706_);fill:#006C67;" d="M343.1,18
		c0-2.7-0.8-2.7-1.5-2.7c-0.6,0-1,0.1-1.4,0.2v-0.7c2-0.6,4-1.2,6-1.9l0.3,0.1v3.2c2.5-1.9,4.3-3.3,6.6-3.3c2.8,0,4.1,1.8,4.6,3.6
		c0.9-1,3.5-3.6,6.9-3.6c4.4,0,5,4.5,5,7.6v8.8c0,0.9,0,2.2,1.8,2.5l1.1,0.1v0.6h-9.4v-0.6c2.1-0.3,2.8-0.3,2.8-3.1v-9
		c0-2.2,0-4.7-3.1-4.7c-2.4,0-3.8,1.2-4.7,2.6v10.8c0,3.3,1.3,3.4,3.1,3.4v0.6h-9.6v-0.6c1.9-0.1,2.9-0.3,2.9-3v-9.3
		c0-2.8-0.7-4.5-2.9-4.5c-3,0-4.9,2.3-4.9,2.5v12.1c0,2.1,1.4,2.2,2.9,2.2v0.6h-9.5v-0.6c1.7,0,3-0.1,3-3V18z"/>
	<path style="clip-path:url(#SVGID_00000142133821710031855050000003529481147356534706_);fill:#006C67;" d="M393.2,30.9
		c-2.3,0.6-3.9,1.2-5.9,1.9l-0.1-0.1v-3.5l-1.8,1.8c-1.7,1.7-3.7,1.8-4.5,1.8c-1.8,0-5.1-1-5.1-5.6V16.6c0-2.6-1.4-2.6-2.7-2.7v-0.6
		h6.2v13.9c0,0.6,0.4,3.2,3.2,3.2c1.3,0,2.6-0.6,3.7-1.5c0.4-0.3,0.7-0.8,0.7-2.2v-10c0-1.7-0.2-2.6-3.2-2.7v-0.7h6.8v14.7
		c0,1.5,0.1,2.5,2.7,2.4V30.9z"/>
	<path style="clip-path:url(#SVGID_00000142133821710031855050000003529481147356534706_);fill:#006C67;" d="M397.5,18
		c0-2.7-0.8-2.7-1.5-2.7c-0.6,0-1.1,0.1-1.2,0.2v-0.7c1.9-0.6,3.9-1.2,5.9-1.9l0.3,0.1v3.4c2.1-2,3.7-3.5,6.2-3.5c2,0,5,1.2,5,6.4
		V29c0,2,0.5,2.7,2.6,2.8v0.6h-8.9v-0.6c1.6-0.1,2.7-0.3,2.7-3.6v-8.9c0-2.6-0.8-4.1-3.3-4.1c-1.3,0-2.6,0.9-4.2,2.4v12
		c0,1.4,0.6,2.1,2.8,2.2v0.6h-9.1v-0.6c2-0.1,2.6-0.7,2.6-3.2V18z"/>
	<path style="clip-path:url(#SVGID_00000142133821710031855050000003529481147356534706_);fill:#006C67;" d="M416.1,31.8
		c2.7-0.1,3.4-0.4,3.4-3.7v-9.9c0-2.5-0.8-2.6-1.5-2.6c-0.6,0-1.2,0.1-1.7,0.2v-0.6c2.2-0.7,4.4-1.5,6.6-2.4l0.2,0.1v15.2
		c0,2.8,0.2,3.5,3.2,3.7v0.6h-10.1V31.8z M420.9,3.3c1.3,0,2.2,1,2.2,2.2c0,1.2-0.9,2.2-2.2,2.2c-1.5,0-2.1-1.4-2.1-2.2
		C418.8,4.6,419.4,3.3,420.9,3.3"/>
	<path style="clip-path:url(#SVGID_00000142133821710031855050000003529481147356534706_);fill:#006C67;" d="M438.2,14.6h-4.3v12.2
		c0,1.3,0,3.8,2.2,3.8c1.4,0,2.1-0.9,2.6-1.5l0.6,0.5c-1,1.8-3,3.2-5,3.2c-2.2,0-3.9-1.2-3.9-5.4V14.6H428c-0.1,0-0.2-0.2-0.2-0.3
		c0-0.5,0.9-0.8,1.9-1.7c1.6-1.7,2.3-2.6,3.9-4.9c0.3,0,0.3,0.2,0.3,0.6v5h4.3V14.6z"/>
	<path style="clip-path:url(#SVGID_00000142133821710031855050000003529481147356534706_);fill:#006C67;" d="M459.5,13.9
		c-0.6,0.1-1.4,0.2-2.1,1.9l-6.6,17.4c-2.2,5.7-4.1,8.5-7.3,8.5c-2.1,0-3.1-1.4-3.1-2.5c0-0.3,0.1-1.9,2-1.9c1.2,0,2.5,0.8,3,0.8
		c2.2,0,3.9-5.9,3.9-6.6c0-0.6-2.1-4.6-2.7-5.9L442,15.2c-0.5-1.1-1.6-1.3-2.2-1.4v-0.6h8.8v0.6c-1,0-2.5,0.1-2.5,1.2
		c0,0.6,0.3,1.2,0.4,1.5l4.9,10.8l3.3-9.5c0.4-1.2,1-2.5,1-2.9c0-0.8-0.7-1.2-2.1-1.2v-0.6h5.8V13.9z"/>
	<path style="clip-path:url(#SVGID_00000142133821710031855050000003529481147356534706_);fill:#006C67;" d="M257.1,75.1
		c3.6-0.2,3.8-1.1,3.8-4.3V52.3c0-3.2-0.6-3.6-3.8-3.8v-0.8H269v0.8c-3.2,0.3-3.8,0.8-3.8,3.8v8.3h12.9v-8.3c0-3.2-0.6-3.6-3.8-3.8
		v-0.8h11.9v0.8c-3.3,0.3-3.8,0.8-3.8,3.8v19c0,2.8,0.4,3.6,3.8,3.8v0.8h-11.9v-0.8c3.6-0.2,3.8-1.1,3.8-4.3v-8.3h-12.9v8.8
		c0,2.8,0.4,3.6,3.8,3.8v0.8h-11.9V75.1z"/>
	<path style="clip-path:url(#SVGID_00000142133821710031855050000003529481147356534706_);fill:#006C67;" d="M305.3,69.2
		c-0.4,1.3-2.9,7.1-9.1,7.1c-4.7,0-8-3.5-8-9.6c0-7.9,5.3-10.5,8.7-10.5c4,0,7.1,2.2,7.5,7.8h-13.3c0.5,7.6,4,9.3,6.8,9.3
		c3.8,0,5.6-2.9,6.6-4.5L305.3,69.2z M300.1,62.7c-0.3-2.1-0.7-4.9-4.1-4.9c-2.3,0-4,1.2-4.7,4.9H300.1z"/>
	<path style="clip-path:url(#SVGID_00000142133821710031855050000003529481147356534706_);fill:#006C67;" d="M325,74.2
		c-1.8,2.1-3.1,2.1-3.8,2.1c-0.8,0-2.6,0-2.8-3.1c-1.6,1.4-3.8,3.1-6.2,3.1c-2.3,0-4.5-1.6-4.5-4.4c0-4.3,3.7-5.7,10.7-8.5v-2.6
		c0-3.1-2-3.6-3.3-3.6c-1.4,0-3,0.8-3,2.1c0,0.6,0.2,1.3,0.2,1.7c0,0.9-0.8,1.8-1.9,1.8c-1.3,0-1.8-1.2-1.8-1.9c0-1.7,2-4.7,7-4.7
		c6.4,0,6.4,4.3,6.4,6.8v8.3c0,1.2,0,2.5,1.2,2.5c0.9,0,1.5-0.4,1.9-0.8V74.2z M318.4,64.5c-6.4,2.1-6.9,4.5-6.9,6v0.1
		c0,2,1.2,3.3,2.8,3.3c0.9,0,2.3-0.6,2.6-0.8c1.3-0.6,1.4-1.2,1.4-2.4V64.5z"/>
	<path style="clip-path:url(#SVGID_00000142133821710031855050000003529481147356534706_);fill:#006C67;" d="M326,75.3
		c2.5-0.2,3.3-0.7,3.3-3.1V51.8c0-1.9-0.3-2.6-1.9-2.6c-0.6,0-0.9,0-1.5,0.1v-0.7c2.3-0.5,4.5-1.2,6.8-1.9l0.2,0.1v25.5
		c0,2.5,0.7,2.8,3.2,3v0.6H326V75.3z"/>
	<path style="clip-path:url(#SVGID_00000142133821710031855050000003529481147356534706_);fill:#006C67;" d="M347.9,58.1h-4.3v12.2
		c0,1.3,0,3.8,2.2,3.8c1.4,0,2.1-0.9,2.6-1.5l0.6,0.5c-1,1.8-3,3.2-5,3.2c-2.2,0-3.9-1.2-3.9-5.4V58.1h-2.3c-0.1,0-0.2-0.2-0.2-0.3
		c0-0.5,0.9-0.8,1.9-1.7c1.6-1.7,2.3-2.6,3.8-4.9c0.3,0,0.3,0.2,0.3,0.6v5h4.3V58.1z"/>
	<path style="clip-path:url(#SVGID_00000142133821710031855050000003529481147356534706_);fill:#006C67;" d="M369.7,75.9h-9.1v-0.6
		c2.1-0.2,2.9-0.4,2.9-3.7v-8.5c0-2.9-0.9-4.5-3.3-4.5c-1.2,0-2.9,0.6-4.7,2.7v10.3c0,3.3,0.8,3.5,2.9,3.7v0.6h-9.2v-0.6
		c2.3-0.3,2.7-0.6,2.7-3.7V51.5c0-1.3,0-2.2-1.9-2.2c-0.3,0-0.7,0-0.8,0v-0.7c1.9-0.5,4-1.2,6.1-1.9l0.2,0.1v12.9h0.1
		c1.5-2.1,3.6-3.5,6.2-3.5c5.3,0,5.3,5.1,5.3,6.8v8.5c0,3.1,0.4,3.3,2.6,3.7V75.9z"/>
	<path style="clip-path:url(#SVGID_00000142133821710031855050000003529481147356534706_);fill:#006C67;" d="M401,56.2h-1.1
		c-0.7-3.5-3.5-7.4-8-7.4c-2.1,0-4.3,1.3-4.3,4c0,6.4,14.3,7.3,14.3,16c0,3.6-2.9,7.7-9,7.7c-3.3,0-5.3-1.5-6.6-1.5
		c-0.9,0-1.3,0.7-1.3,1.4H384l-1.3-9.1h1c0.8,2,3,7.6,8.8,7.6c3.4,0,5.1-2.4,5.1-4.7c0-2.4-0.7-3.9-7-7.6c-3.9-2.3-6.7-4.1-6.7-8.4
		c0-4.9,3.9-7.3,7.7-7.3c2.6,0,4.9,1.5,6,1.5c1.2,0,1.4-1,1.5-1.5h0.9L401,56.2z"/>
	<path style="clip-path:url(#SVGID_00000142133821710031855050000003529481147356534706_);fill:#006C67;" d="M425,57.4
		c-0.5,0.1-1.4,0.2-2,1.9l-6.6,17.4c-2.2,5.7-4.1,8.6-7.3,8.6c-2.1,0-3.1-1.4-3.1-2.5c0-0.3,0.1-1.9,2.1-1.9c1.1,0,2.5,0.8,3,0.8
		c2.2,0,3.9-5.9,3.9-6.6c0-0.6-2-4.6-2.7-5.9l-4.9-10.5c-0.5-1.1-1.6-1.3-2.2-1.4v-0.6h8.8v0.6c-1,0-2.5,0.1-2.5,1.2
		c0,0.6,0.3,1.2,0.4,1.5l4.9,10.8l3.3-9.5c0.4-1.2,1-2.5,1-2.9c0-0.8-0.7-1.2-2.1-1.2v-0.6h5.8V57.4z"/>
	<path style="clip-path:url(#SVGID_00000142133821710031855050000003529481147356534706_);fill:#006C67;" d="M438.9,62.5
		c-0.9-4.4-2.9-5.3-4.7-5.3c-2.4,0-3.3,1.7-3.3,2.8c0,0.9,0.3,2.1,1.8,3l4.6,2.7c2.1,1.3,3.6,2.5,3.6,5c0,3.7-3.5,5.5-6.2,5.5
		c-1.9,0-3.8-0.8-5-0.8c-0.5,0-0.7,0.1-0.9,0.5h-0.5v-6.7h0.7c0.5,2.3,1.3,6,5.5,6c1.5,0,3.5-0.7,3.5-3.1c0-1.4-0.9-2.4-2.2-3.2
		l-2.5-1.4c-2.6-1.5-5-3.1-5-6.2c0-2.4,1.8-5.2,6-5.2c1.9,0,3.2,0.9,3.9,0.9c0.4,0,0.6-0.3,0.7-0.5h0.5l0.2,5.9H438.9z"/>
	<path style="clip-path:url(#SVGID_00000142133821710031855050000003529481147356534706_);fill:#006C67;" d="M453.6,58.1h-4.3v12.2
		c0,1.3,0,3.8,2.2,3.8c1.4,0,2.1-0.9,2.6-1.5l0.6,0.5c-1,1.8-3,3.2-5,3.2c-2.2,0-3.9-1.2-3.9-5.4V58.1h-2.3c-0.1,0-0.2-0.2-0.2-0.3
		c0-0.5,0.9-0.8,1.9-1.7c1.6-1.7,2.3-2.6,3.8-4.9c0.3,0,0.3,0.2,0.3,0.6v5h4.3V58.1z"/>
	<path style="clip-path:url(#SVGID_00000142133821710031855050000003529481147356534706_);fill:#006C67;" d="M472.7,69.2
		c-0.4,1.3-2.9,7.1-9.1,7.1c-4.7,0-8-3.5-8-9.6c0-7.9,5.3-10.5,8.7-10.5c4,0,7.1,2.2,7.5,7.8h-13.3c0.5,7.6,4,9.3,6.8,9.3
		c3.8,0,5.6-2.9,6.6-4.5L472.7,69.2z M467.5,62.7c-0.3-2.1-0.7-4.9-4.1-4.9c-2.4,0-4,1.2-4.7,4.9H467.5z"/>
	<path style="clip-path:url(#SVGID_00000142133821710031855050000003529481147356534706_);fill:#006C67;" d="M477.2,61.5
		c0-2.7-0.8-2.7-1.5-2.7c-0.6,0-1,0.1-1.4,0.2v-0.7c2-0.6,4-1.2,6-1.9l0.3,0.1v3.2c2.5-1.9,4.3-3.3,6.6-3.3c2.8,0,4.1,1.8,4.6,3.6
		c0.9-1,3.5-3.6,6.9-3.6c4.4,0,5,4.4,5,7.6v8.8c0,0.9,0,2.2,1.8,2.5l1.1,0.1v0.6h-9.4v-0.6c2.1-0.3,2.8-0.3,2.8-3.1v-9
		c0-2.2,0-4.7-3.1-4.7c-2.4,0-3.8,1.2-4.7,2.6v10.8c0,3.2,1.3,3.4,3.1,3.4v0.6h-9.6v-0.6c1.9-0.1,2.9-0.3,2.9-3V63
		c0-2.8-0.7-4.5-2.9-4.5c-3,0-4.9,2.3-4.9,2.5v12.1c0,2.1,1.4,2.2,2.9,2.2v0.6h-9.5v-0.6c1.7,0,3-0.1,3-3V61.5z"/>
	<path style="clip-path:url(#SVGID_00000142133821710031855050000003529481147356534706_);fill:#006C67;" d="M519.6,62.5
		c-0.9-4.4-2.9-5.3-4.7-5.3c-2.3,0-3.2,1.7-3.2,2.8c0,0.9,0.3,2.1,1.8,3l4.6,2.7c2.1,1.3,3.6,2.5,3.6,5c0,3.7-3.5,5.5-6.2,5.5
		c-1.9,0-3.8-0.8-5-0.8c-0.5,0-0.7,0.1-0.9,0.5H509v-6.7h0.7c0.5,2.3,1.3,6,5.5,6c1.5,0,3.5-0.7,3.5-3.1c0-1.4-0.9-2.4-2.2-3.2
		l-2.5-1.4c-2.6-1.5-5-3.1-5-6.2c0-2.4,1.8-5.2,6-5.2c1.9,0,3.2,0.9,3.9,0.9c0.4,0,0.6-0.3,0.7-0.5h0.5l0.2,5.9H519.6z"/>
	<path style="clip-path:url(#SVGID_00000142133821710031855050000003529481147356534706_);fill:#006C67;" d="M69.3,69.1v0.9h-2.2
		v6.3H66v-6.3h-2.2v-0.9H69.3z M76.3,76.4L76.1,72c0-0.6,0-1.3,0-2H76c-0.2,0.7-0.4,1.4-0.6,2.1l-1.5,4.2H73L71.5,72
		c-0.2-0.6-0.4-1.3-0.5-2H71c0,0.7,0,1.3,0,2l-0.3,4.4h-1.1l0.6-7.2h1.4l1.4,3.9c0.2,0.5,0.3,1.1,0.5,1.8h0c0.2-0.7,0.3-1.3,0.5-1.8
		l1.4-3.9h1.4l0.5,7.2H76.3z"/>
</g>
</svg>
