<?xml version="1.0" encoding="utf-8"?>
<!-- Generator: Adobe Illustrator 24.3.0, SVG Export Plug-In . SVG Version: 6.00 Build 0)  -->
<svg version="1.1" id="Layer_1" xmlns="http://www.w3.org/2000/svg" xmlns:xlink="http://www.w3.org/1999/xlink" x="0px" y="0px"
	 viewBox="0 0 512 512" style="enable-background:new 0 0 512 512;" xml:space="preserve">
<style type="text/css">
	.st0{fill:#1F6B66;}
</style>
<g id="XMLID_1_">
	<g id="XMLID_2_">
		<path id="XMLID_42_" class="st0" d="M124.66,268.72c-2.49,6.92-8.72,12.87-16.33,12.87c-14.53,0-20.07-18.13-20.07-32.8
			c0-11.21,4.84-24.78,16.33-24.78c9,0,15.09,9.41,19.38,17.58l3.6-0.83l-4.71-20.49c-2.49,1.11-5.4,1.94-6.92,1.94
			c-1.38,0-3.18-0.42-5.4-1.11c-2.08-0.55-4.29-0.97-6.92-0.97c-17.86,0-26.99,19.93-26.99,36.26c0,17.99,9.83,32.8,26.85,32.8
			c11.49,0,20.49-8.3,24.22-19.52"/>
		<polyline id="XMLID_41_" class="st0" points="183.35,225.39 188.61,224.7 188.61,221.65 166.6,221.65 166.6,224.7 171.86,225.39 
			171.86,251.27 145.15,251.27 145.15,225.39 150.27,224.7 150.27,221.65 128.4,221.65 128.4,224.7 133.52,225.39 133.52,284.22 
			128.4,284.91 128.4,287.95 150.27,287.95 150.27,284.91 145.15,284.22 145.15,255.15 171.86,255.15 171.86,284.22 166.6,284.91 
			166.6,287.95 188.61,287.95 188.61,284.91 183.35,284.22 		"/>
		<path id="XMLID_40_" class="st0" d="M228.2,220.27c-2.08,1.38-4.57,1.94-6.51,1.94c-1.8,0-3.46-0.42-5.26-1.11
			c-1.8-0.55-3.74-0.97-6.64-0.97c-10.93,0-18.13,8.58-18.13,17.3c0,26.44,34.74,18.69,34.74,36.54c0,6.37-5.54,11.49-11.9,11.49
			c-10.66,0-17.86-9.14-22.15-18.27l-3.6,0.42l3.6,20.21c1.94-0.83,4.01-1.66,6.09-1.66c3.18,0,8.44,3.05,15.5,3.05
			c11.49,0,20.9-8.17,20.9-19.66c0-26.16-35.43-17.3-35.43-35.85c0-5.81,4.29-9.69,11.07-9.69c9.27,0,14.67,9.69,18.13,16.75
			l3.32-0.83"/>
		<path id="XMLID_3_" class="st0" d="M47.84,214.18c-2.77,0-5.12,2.35-5.12,5.12v14.12c0,2.77,2.35,5.12,5.12,5.12h7.89
			c2.77,0,5.12-2.35,5.12-5.12V219.3c0-2.77-2.35-5.12-5.12-5.12 M45.07,233.28v-14.12c0-1.52,1.25-2.77,2.77-2.77h7.89
			c1.52,0,2.77,1.25,2.77,2.77v14.12c0,1.52-1.25,2.77-2.77,2.77h-7.89C46.32,236.05,45.07,234.8,45.07,233.28z"/>
		<path id="XMLID_4_" class="st0" d="M47.84,241.59c-2.77,0-5.12,2.35-5.12,5.12v14.12c0,2.77,2.35,5.12,5.12,5.12h7.89
			c2.77,0,5.12-2.35,5.12-5.12v-14.12c0-2.77-2.35-5.12-5.12-5.12 M45.07,260.83v-14.12c0-1.52,1.25-2.77,2.77-2.77h7.89
			c1.52,0,2.77,1.25,2.77,2.77v14.12c0,1.52-1.25,2.77-2.77,2.77h-7.89C46.32,263.59,45.07,262.35,45.07,260.83z"/>
		<path id="XMLID_5_" class="st0" d="M47.84,269.13c-2.77,0-5.12,2.35-5.12,5.12v14.12c0,2.77,2.35,5.12,5.12,5.12h7.89
			c2.77,0,5.12-2.35,5.12-5.12v-14.12c0-2.77-2.35-5.12-5.12-5.12 M45.07,288.37v-14.12c0-1.52,1.25-2.77,2.77-2.77h7.89
			c1.52,0,2.77,1.25,2.77,2.77v14.12c0,1.52-1.25,2.77-2.77,2.77h-7.89C46.32,291.14,45.07,289.89,45.07,288.37z"/>
		<path id="XMLID_6_" class="st0" d="M26.53,241.59c-2.77,0-5.12,2.35-5.12,5.12v14.12c0,2.77,2.35,5.12,5.12,5.12h7.89
			c2.77,0,5.12-2.35,5.12-5.12v-14.12c0-2.77-2.21-5.12-5.12-5.12 M23.76,260.83v-14.12c0-1.52,1.25-2.77,2.77-2.77h7.89
			c1.52,0,2.77,1.25,2.77,2.77v14.12c0,1.52-1.25,2.77-2.77,2.77h-7.89C25,263.59,23.76,262.35,23.76,260.83z"/>
		<path id="XMLID_7_" class="st0" d="M26.53,269.13c-2.77,0-5.12,2.35-5.12,5.12v14.12c0,2.77,2.35,5.12,5.12,5.12h7.89
			c2.77,0,5.12-2.35,5.12-5.12v-14.12c0-2.77-2.21-5.12-5.12-5.12 M23.76,288.37v-14.12c0-1.52,1.25-2.77,2.77-2.77h7.89
			c1.52,0,2.77,1.25,2.77,2.77v14.12c0,1.52-1.25,2.77-2.77,2.77h-7.89C25,291.14,23.76,289.89,23.76,288.37z"/>
		<path id="XMLID_8_" class="st0" d="M5.07,269.13c-2.77,0-5.12,2.35-5.12,5.12v14.12c0,2.77,2.35,5.12,5.12,5.12h7.89
			c2.77,0,5.12-2.35,5.12-5.12v-14.12c0-2.77-2.35-5.12-5.12-5.12 M2.3,288.37v-14.12c0-1.52,1.25-2.77,2.77-2.77h7.89
			c1.52,0,2.77,1.25,2.77,2.77v14.12c0,1.52-1.25,2.77-2.77,2.77H5.07C3.55,291.14,2.3,289.89,2.3,288.37z"/>
		<path id="XMLID_27_" class="st0" d="M276.64,227.05c-1.11-4.43-4.01-7.75-9.27-7.75c-2.08,0-4.57,0.83-6.23,2.49
			c-1.66,1.52-3.46,4.29-3.46,10.38c0,8.86,4.98,12.6,10.24,12.6c5.12,0,8.17-3.05,9.41-4.29l0.69,0.69c0,0.14-3.6,5.26-11.35,5.26
			c-6.78,0-13.98-4.01-13.98-14.53c0-9.41,7.06-14.53,14.26-14.53c3.74,0,6.51,1.38,7.34,1.38c0.28,0,1.52,0,1.94-1.38h0.83
			l0.42,9.41"/>
		<path id="XMLID_9_" class="st0" d="M299.2,236.46c0,4.15-2.91,9.97-9.27,9.97c-5.4,0-9.14-4.29-9.14-9.97c0-5.12,3.46-9.69,9-9.69
			C295.33,226.64,299.2,230.37,299.2,236.46 M295.47,237.57c0-5.26-2.08-9.83-5.95-9.83c-2.63,0-4.98,2.21-4.98,6.51
			c0,3.05,0.97,10.8,5.95,10.8C292.7,245.18,295.47,243.66,295.47,237.57z"/>
		<path id="XMLID_24_" class="st0" d="M304.19,231.76c0-2.63-0.83-2.63-1.52-2.63c-0.55,0-0.97,0.14-1.38,0.14v-0.69
			c1.94-0.55,3.88-1.25,5.81-1.94l0.28,0.14v3.18c2.49-1.94,4.15-3.18,6.51-3.18c2.77,0,4.01,1.8,4.43,3.6
			c0.83-0.97,3.46-3.6,6.78-3.6c4.43,0,4.98,4.43,4.98,7.47v8.58c0,0.97,0,2.21,1.8,2.49l1.11,0.14v0.69h-9.14v-0.69
			c2.08-0.28,2.77-0.28,2.77-3.05v-8.86c0-2.08,0-4.57-3.05-4.57c-2.35,0-3.74,1.11-4.71,2.49V242c0,3.18,1.25,3.32,3.05,3.32v0.69
			h-9.41v-0.69c1.94-0.14,2.91-0.28,2.91-3.05v-9.14c0-2.77-0.69-4.43-2.91-4.43c-2.91,0-4.84,2.21-4.84,2.49v11.9
			c0,2.08,1.38,2.08,2.91,2.21v0.69h-9.27v-0.69c1.66,0,2.91-0.14,2.91-2.91"/>
		<path id="XMLID_23_" class="st0" d="M336.72,231.76c0-2.63-0.83-2.63-1.52-2.63c-0.55,0-0.97,0.14-1.38,0.14v-0.69
			c1.94-0.55,4.01-1.25,5.81-1.94l0.28,0.14v3.18c2.49-1.94,4.15-3.18,6.51-3.18c2.77,0,4.01,1.8,4.43,3.6
			c0.83-0.97,3.46-3.6,6.78-3.6c4.43,0,4.98,4.43,4.98,7.47v8.58c0,0.97,0,2.21,1.8,2.49l1.11,0.14v0.69h-9.14v-0.69
			c2.08-0.28,2.77-0.28,2.77-3.05v-8.86c0-2.08,0-4.57-3.05-4.57c-2.35,0-3.74,1.11-4.71,2.49V242c0,3.18,1.25,3.32,3.05,3.32v0.69
			h-9.41v-0.69c1.94-0.14,2.91-0.28,2.91-3.05v-9.14c0-2.77-0.69-4.43-2.91-4.43c-2.91,0-4.84,2.21-4.84,2.49v11.9
			c0,2.08,1.38,2.08,2.91,2.21v0.69h-9.27v-0.69c1.66,0,2.91-0.14,2.91-2.91"/>
		<path id="XMLID_22_" class="st0" d="M385.85,244.49c-2.21,0.55-3.88,1.11-5.81,1.94l-0.14-0.14v-3.46l-1.8,1.8
			c-1.66,1.66-3.6,1.8-4.43,1.8c-1.66,0-4.98-0.97-4.98-5.4v-10.52c0-2.49-1.38-2.63-2.63-2.63v-0.55h6.09v13.7
			c0,0.55,0.42,3.18,3.18,3.18c1.25,0,2.49-0.55,3.6-1.52c0.42-0.28,0.69-0.69,0.69-2.08v-9.83c0-1.66-0.14-2.49-3.05-2.63v-0.69
			h6.64v14.4c0,1.52,0.14,2.49,2.63,2.35"/>
		<path id="XMLID_21_" class="st0" d="M390.14,231.76c0-2.63-0.83-2.63-1.52-2.63c-0.55,0-1.11,0.14-1.25,0.14v-0.69
			c1.94-0.55,3.88-1.25,5.81-1.94l0.28,0.14v3.32c2.08-1.94,3.6-3.46,6.09-3.46c1.94,0,4.84,1.11,4.84,6.37v9.55
			c0,1.94,0.55,2.63,2.63,2.77v0.69h-8.72v-0.69c1.52-0.14,2.63-0.28,2.63-3.46v-8.72c0-2.49-0.69-4.01-3.18-4.01
			c-1.25,0-2.63,0.83-4.15,2.35v11.77c0,1.38,0.55,2.08,2.77,2.21v0.69h-8.86v-0.69c1.94-0.14,2.63-0.69,2.63-3.18"/>
		<path id="XMLID_10_" class="st0" d="M408.42,245.32c2.63-0.14,3.32-0.42,3.32-3.6v-9.69c0-2.49-0.83-2.49-1.52-2.49
			c-0.55,0-1.11,0.14-1.66,0.14v-0.69c2.21-0.69,4.29-1.52,6.51-2.35l0.14,0.14v14.95c0,2.77,0.28,3.46,3.05,3.6v0.69h-9.97
			 M413.12,217.36c1.25,0,2.21,0.97,2.21,2.08c0,1.25-0.97,2.08-2.21,2.08c-1.52,0-2.08-1.38-2.08-2.08
			C411.04,218.61,411.74,217.36,413.12,217.36z"/>
		<path id="XMLID_18_" class="st0" d="M430.15,228.44h-4.29v12.04c0,1.25,0,3.74,2.08,3.74c1.38,0,2.08-0.97,2.63-1.52l0.55,0.42
			c-0.97,1.8-3.05,3.18-4.84,3.18c-2.08,0-3.88-1.11-3.88-5.4v-12.6h-2.21c-0.14,0-0.14-0.14-0.14-0.28c0-0.55,0.97-0.69,1.8-1.66
			c1.66-1.66,2.21-2.63,3.74-4.84c0.28,0,0.28,0.28,0.28,0.55v4.84h4.29"/>
		<path id="XMLID_17_" class="st0" d="M451.05,227.74c-0.55,0.14-1.38,0.14-2.08,1.94l-6.51,17.16c-2.08,5.68-4.01,8.44-7.2,8.44
			c-2.08,0-3.05-1.38-3.05-2.49c0-0.28,0.14-1.8,2.08-1.8c1.11,0,2.49,0.69,3.05,0.69c2.21,0,3.88-5.81,3.88-6.51
			s-2.08-4.43-2.63-5.81l-4.84-10.38c-0.55-1.11-1.66-1.25-2.08-1.38v-0.55h8.58v0.69c-0.97,0-2.49,0.14-2.49,1.25
			c0,0.55,0.28,1.25,0.42,1.52l4.84,10.66l3.32-9.27c0.42-1.11,0.97-2.49,0.97-2.91c0-0.83-0.69-1.25-2.08-1.25v-0.69h5.68"/>
		<path id="XMLID_16_" class="st0" d="M252.28,287.82c3.46-0.14,3.74-1.11,3.74-4.29v-18.13c0-3.05-0.55-3.46-3.74-3.74v-0.83h11.63
			v0.83c-3.18,0.28-3.74,0.83-3.74,3.74v8.17h12.73v-8.17c0-3.05-0.55-3.46-3.74-3.74v-0.83h11.63v0.83
			c-3.18,0.28-3.74,0.83-3.74,3.74v18.69c0,2.77,0.42,3.6,3.74,3.74v0.83h-11.63v-0.83c3.46-0.14,3.74-1.11,3.74-4.29v-8.17h-12.73
			v8.58c0,2.77,0.42,3.6,3.74,3.74v0.83h-11.63"/>
		<path id="XMLID_11_" class="st0" d="M299.62,282.14c-0.42,1.25-2.91,7.06-8.86,7.06c-4.71,0-7.89-3.46-7.89-9.41
			c0-7.75,5.26-10.38,8.58-10.38c4.01,0,6.92,2.21,7.34,7.61h-13.01c0.55,7.47,3.88,9.14,6.64,9.14c3.74,0,5.54-2.91,6.51-4.43
			 M294.5,275.77c-0.28-2.08-0.69-4.84-4.01-4.84c-2.35,0-3.88,1.11-4.57,4.84H294.5z"/>
		<path id="XMLID_12_" class="st0" d="M319,286.99c-1.8,2.08-3.05,2.08-3.74,2.08s-2.49,0-2.77-3.05c-1.52,1.38-3.74,3.05-6.09,3.05
			c-2.21,0-4.43-1.52-4.43-4.43c0-4.15,3.6-5.68,10.52-8.3v-2.49c0-3.05-1.94-3.46-3.18-3.46c-1.38,0-3.05,0.69-3.05,2.08
			c0,0.69,0.28,1.25,0.28,1.66c0,0.83-0.83,1.8-1.94,1.8c-1.25,0-1.8-1.11-1.8-1.8c0-1.66,1.94-4.71,6.78-4.71
			c6.23,0,6.23,4.15,6.23,6.78v8.17c0,1.25,0,2.49,1.25,2.49c0.83,0,1.38-0.42,1.94-0.83 M312.49,277.44
			c-6.37,2.08-6.78,4.43-6.78,5.81v0.14c0,1.94,1.25,3.32,2.77,3.32c0.97,0,2.21-0.55,2.63-0.69c1.25-0.69,1.38-1.11,1.38-2.35
			V277.44z"/>
		<path id="XMLID_44_" class="st0" d="M319.97,288.09c2.49-0.14,3.18-0.69,3.18-3.05v-20.07c0-1.94-0.28-2.63-1.94-2.63
			c-0.55,0-0.97,0-1.38,0.14v-0.69c2.21-0.55,4.43-1.11,6.64-1.8l0.14,0.14v25.05c0,2.49,0.69,2.77,3.18,2.91v0.69h-9.97"/>
		<path id="XMLID_45_" class="st0" d="M341.42,271.21h-4.29v12.04c0,1.25,0,3.74,2.08,3.74c1.38,0,2.08-0.97,2.63-1.52l0.55,0.42
			c-0.97,1.8-3.05,3.18-4.84,3.18c-2.08,0-3.88-1.11-3.88-5.4v-12.46h-2.21c-0.14,0-0.14-0.14-0.14-0.28c0-0.55,0.97-0.69,1.8-1.66
			c1.66-1.66,2.21-2.63,3.74-4.84c0.28,0,0.28,0.28,0.28,0.55v4.84h4.29"/>
		<path id="XMLID_46_" class="st0" d="M362.88,288.65h-8.86v-0.69c2.08-0.28,2.91-0.42,2.91-3.6v-8.3c0-2.77-0.97-4.43-3.18-4.43
			c-1.25,0-2.91,0.69-4.57,2.63v10.1c0,3.18,0.83,3.46,2.91,3.6v0.69h-9v-0.69c2.21-0.28,2.63-0.55,2.63-3.6v-19.79
			c0-1.25,0-2.08-1.8-2.08c-0.28,0-0.69,0-0.83,0v-0.69c1.94-0.55,4.01-1.11,5.95-1.8l0.28,0.14v12.73h0.14
			c1.52-2.08,3.46-3.46,6.09-3.46c5.12,0,5.26,4.98,5.26,6.64v8.3c0,3.05,0.42,3.32,2.49,3.6"/>
		<path id="XMLID_47_" class="st0" d="M393.6,269.27h-1.11c-0.69-3.46-3.46-7.2-7.75-7.2c-2.08,0-4.29,1.25-4.29,3.88
			c0,6.23,13.98,7.2,13.98,15.78c0,3.6-2.91,7.61-8.86,7.61c-3.18,0-5.26-1.38-6.51-1.38c-0.83,0-1.25,0.69-1.25,1.38h-0.97
			l-1.25-8.86h0.97c0.83,1.94,2.91,7.47,8.58,7.47c3.32,0,4.98-2.35,4.98-4.71c0-2.35-0.69-3.88-6.78-7.47
			c-3.88-2.21-6.51-4.01-6.51-8.17c0-4.84,3.88-7.2,7.61-7.2c2.49,0,4.84,1.38,5.81,1.38c1.11,0,1.38-0.97,1.52-1.38h0.83"/>
		<path id="XMLID_48_" class="st0" d="M417.14,270.38c-0.55,0.14-1.38,0.14-2.08,1.94l-6.51,17.16c-2.08,5.68-4.01,8.44-7.2,8.44
			c-2.08,0-3.05-1.38-3.05-2.49c0-0.28,0.14-1.8,2.08-1.8c1.11,0,2.49,0.69,3.05,0.69c2.21,0,3.88-5.81,3.88-6.51
			s-2.08-4.43-2.63-5.81l-4.84-10.38c-0.55-1.11-1.66-1.25-2.08-1.38v-0.42h8.58v0.69c-0.97,0-2.49,0.14-2.49,1.25
			c0,0.55,0.28,1.25,0.42,1.52l4.84,10.66l3.32-9.27c0.42-1.11,0.97-2.49,0.97-2.91c0-0.83-0.69-1.25-2.08-1.25v-0.69H417"/>
		<path id="XMLID_49_" class="st0" d="M430.84,275.5c-0.97-4.29-2.77-5.12-4.71-5.12c-2.35,0-3.18,1.66-3.18,2.77
			c0,0.83,0.28,2.08,1.8,2.91l4.57,2.63c2.08,1.25,3.6,2.49,3.6,4.98c0,3.6-3.46,5.4-6.09,5.4c-1.94,0-3.74-0.83-4.84-0.69
			c-0.55,0-0.69,0.14-0.97,0.55h-0.55v-6.64h0.69c0.55,2.21,1.25,5.81,5.4,5.81c1.38,0,3.46-0.69,3.46-3.05
			c0-1.38-0.83-2.35-2.21-3.05l-2.49-1.38c-2.63-1.52-4.84-3.05-4.84-6.09c0-2.35,1.8-5.12,5.81-5.12c1.8,0,3.18,0.83,3.88,0.83
			c0.42,0,0.55-0.28,0.69-0.42h0.42l0.14,5.81"/>
		<path id="XMLID_50_" class="st0" d="M445.23,271.21h-4.29v12.04c0,1.25,0,3.74,2.08,3.74c1.38,0,2.08-0.97,2.63-1.52l0.55,0.42
			c-0.97,1.8-3.05,3.18-4.84,3.18c-2.08,0-3.88-1.11-3.88-5.4v-12.46h-2.21c-0.14,0-0.14-0.14-0.14-0.28c0-0.55,0.97-0.69,1.8-1.66
			c1.66-1.66,2.21-2.63,3.74-4.84c0.28,0,0.28,0.28,0.28,0.55v4.84h4.29"/>
		<path id="XMLID_51_" class="st0" d="M464.06,282.14c-0.42,1.25-2.91,7.06-8.86,7.06c-4.71,0-7.89-3.46-7.89-9.41
			c0-7.75,5.26-10.38,8.58-10.38c3.88,0,6.92,2.21,7.34,7.61h-13.01c0.55,7.47,3.88,9.14,6.64,9.14c3.74,0,5.54-2.91,6.51-4.43
			 M458.94,275.77c-0.28-2.08-0.69-4.84-4.01-4.84c-2.35,0-4.01,1.11-4.57,4.84H458.94z"/>
		<path id="XMLID_54_" class="st0" d="M468.49,274.53c0-2.63-0.83-2.63-1.52-2.63c-0.55,0-0.97,0.14-1.38,0.14v-0.83
			c1.94-0.55,4.01-1.11,5.81-1.94l0.28,0.14v3.18c2.49-1.94,4.15-3.18,6.51-3.18c2.77,0,4.01,1.8,4.43,3.46
			c0.83-0.97,3.46-3.46,6.78-3.46c4.43,0,4.98,4.43,4.98,7.47v8.58c0,0.97,0,2.21,1.8,2.49l1.11,0.14v0.69h-9.14v-0.69
			c2.08-0.28,2.77-0.28,2.77-3.05v-8.86c0-2.08,0-4.57-3.05-4.57c-2.35,0-3.74,1.11-4.71,2.63v10.52c0,3.18,1.25,3.32,3.05,3.32
			v0.69h-9.41v-0.69c1.94-0.14,2.91-0.28,2.91-3.05v-9.14c0-2.77-0.69-4.43-2.91-4.43c-2.91,0-4.84,2.21-4.84,2.49v11.9
			c0,2.08,1.38,2.08,2.91,2.21v0.69h-9.27v-0.69c1.66,0,2.91-0.14,2.91-2.91"/>
		<path id="XMLID_55_" class="st0" d="M510.01,275.5c-0.97-4.29-2.77-5.12-4.71-5.12c-2.35,0-3.18,1.66-3.18,2.77
			c0,0.83,0.28,2.08,1.8,2.91l4.57,2.63c2.08,1.25,3.46,2.49,3.46,4.98c0,3.6-3.32,5.4-6.09,5.4c-1.94,0-3.74-0.83-4.84-0.69
			c-0.55,0-0.69,0.14-0.97,0.55h-0.42v-6.64h0.69c0.55,2.21,1.25,5.81,5.4,5.81c1.38,0,3.46-0.69,3.46-3.05
			c0-1.38-0.83-2.35-2.21-3.05l-2.49-1.38c-2.63-1.52-4.98-3.05-4.98-6.09c0-2.35,1.8-5.12,5.81-5.12c1.8,0,3.18,0.83,3.88,0.83
			c0.42,0,0.55-0.28,0.69-0.42h0.42l0.14,5.81"/>
	</g>
</g>
</svg>
