<?xml version="1.0" encoding="utf-8"?>
<svg xmlns="http://www.w3.org/2000/svg" id="Layer_1" data-name="Layer 1" viewBox="0 0 409.79 270.6">
  <defs>
    <style>
      .cls-1 {
        fill: #f1a91e;
      }

      .cls-1, .cls-2 {
        stroke-width: 0px;
      }

      .cls-2 {
        fill: #162b53;
      }
    </style>
  </defs>
  <path class="cls-1" d="M283.04,3.83c-24.31-14.11-51.36,13.53-64.85,37.81-7.19-7.02-12.09-12.3-20.07-17.61-5.32-3.54-11.44-6.98-22.55-11.37C126.89-6.21,70.1,31.1,98.94,81.9c11.75,21.28,40.65,47.3,57.92,62.85,5.44,5.19,10.94,9.81,15.29,5.64,2.41-3.02-1.2-5.98-6.87-10.73-28.83-23.05-50.65-44.94-59.86-60.08-32.95-59.83,59.39-94.4,108.78-31.22-32.49,74.76,45.49,60.92,9.77-.48,8.98-17.19,19.42-28.3,25.84-32.8,25.68-18.01,41.34-.68,41.93,26.65.27,12.43-3.38,26.92-9.22,41.1-6.17,15.5-14.65,26.47-21.46,35.28-17.03,24.89-67.17,63.21-80.47,72.8-4.25,3.15-7.66,7.58-3.8,10.08h0c2.82,1.02,5.17-.99,8-3.02,38.81-29.01,108.95-83.81,114.58-147.49,2.01-22.17-3.94-39.17-16.32-46.65ZM225.86,78.04c-.69,9.22-4.62,16.54-8.78,12.71-2.83-2.96-4.96-18.36,2.88-35.92,3.27,5.19,6.62,14.1,5.9,23.21Z"/>
  <path class="cls-2" d="M180.57,236.33c0-10-6.76-16.21-17.65-16.21h-19.52v49.4h11.53v-13.9h7.99c12.74-.08,18.5-7.9,17.65-19.3ZM169.04,238.56c0,5.26-2.23,8.28-6.12,8.28h-7.99v-17.78h7.99c4.67-.07,6.41,4.15,6.12,9.5Z"/>
  <path class="cls-2" d="M81.15,235.39c.16-21.61-38.7-21.55-38.53,0,0,0,0,18.94,0,18.94,0,9.58,7.94,16.28,19.3,16.28s19.23-6.69,19.23-16.28v-18.94ZM69.62,253.46c-.02,11.38-15.85,10.52-15.4,0,0,0,0-17.21,0-17.21-.45-10.52,15.38-11.38,15.4,0,0,0,0,17.21,0,17.21Z"/>
  <polygon class="cls-2" points="137.02 269.52 137.02 220.12 125.01 220.12 112.11 245.12 99.06 220.12 87.04 220.12 87.04 269.52 98.28 269.52 97.9 237.74 108.04 257.21 116.06 257.21 126.17 237.76 125.79 269.52 137.02 269.52"/>
  <path class="cls-2" d="M207.23,259.16l3.17,10.37h12.1l-17.57-49.4h-10.89l-17.36,49.4h11.95l2.95-10.37h15.65ZM199.21,232.54l5.51,18.33h-10.77l5.26-18.33Z"/>
  <path class="cls-2" d="M347.12,220.19h-11.53v33.27c0,5.18-2.61,8.28-6.98,8.28s-6.98-3.09-6.98-8.28v-33.27h-11.53v34.21c0,9.84,7.27,16.21,18.51,16.21s18.51-6.36,18.51-16.21v-34.21Z"/>
  <path class="cls-2" d="M36.95,251.37h-11.46v3.96c0,3.79-2.81,6.33-6.98,6.33s-6.98-3.14-6.98-8.2v-17.21c0-5.06,2.67-8.2,6.98-8.2s6.98,2.54,6.98,6.33v3.53h11.46v-4.4c0-8.31-7.75-14.33-18.44-14.33S0,225.69,0,235.39v18.94c0,9.74,7.44,16.28,18.51,16.28s18.44-6.06,18.44-14.4v-4.83Z"/>
  <path class="cls-2" d="M261.57,254.11c0-10.03-9.54-13.1-17.55-13.9-4.05-.43-8.37-1.26-8.37-5.83-.14-3.09,1.85-6.08,6.69-6.12,5.82.05,7.41,4.4,7.2,8.42h11.1c.44-8.36-3.76-17.08-18.29-17.29-12.05-.06-18.46,6.03-17.86,15.92,0,8.4,6.03,13.27,17.91,14.48,3.44.36,8.01,1.3,8.01,5.25.2,3.96-2.71,6.63-7.41,6.62-5.88-.07-8.6-4.37-8.28-8.57h-11.17c-.78,10.44,6.77,17.54,19.45,17.51,12.66.06,19.28-6.26,18.58-16.49Z"/>
  <path class="cls-2" d="M304.63,254.11c0-10.03-9.54-13.1-17.55-13.9-4.05-.43-8.37-1.26-8.37-5.83-.14-3.09,1.85-6.08,6.69-6.12,5.82.05,7.41,4.4,7.2,8.42h11.1c.44-8.36-3.76-17.08-18.29-17.29-12.05-.06-18.46,6.03-17.86,15.92,0,8.4,6.03,13.27,17.91,14.48,3.44.36,8.01,1.3,8.01,5.25.2,3.96-2.71,6.63-7.41,6.62-5.88-.07-8.6-4.37-8.28-8.57h-11.17c-.78,10.44,6.77,17.54,19.45,17.51,12.66.06,19.28-6.26,18.58-16.49Z"/>
  <path class="cls-2" d="M390.38,254.11c0-10.03-9.54-13.1-17.55-13.9-4.05-.43-8.37-1.26-8.37-5.83-.14-3.09,1.85-6.08,6.69-6.12,5.82.05,7.41,4.4,7.2,8.42h11.1c.44-8.36-3.76-17.08-18.29-17.29-12.05-.06-18.46,6.03-17.86,15.92,0,8.4,6.03,13.27,17.91,14.48,3.44.36,8.01,1.3,8.01,5.25.2,3.96-2.71,6.63-7.41,6.62-5.88-.07-8.6-4.37-8.28-8.57h-11.17c-.78,10.44,6.77,17.54,19.45,17.51,12.66.06,19.28-6.26,18.58-16.49Z"/>
  <g>
    <path class="cls-2" d="M405.92,224.89c0-1.29-1.02-2.32-2.43-2.32h-3.18v7.55h1.19v-2.91h1.72l1.62,2.91h1.29l-1.72-3.02s1.51-.54,1.51-2.21ZM403.49,226.13h-1.99v-2.48h1.99c.7,0,1.24.54,1.24,1.24s-.54,1.24-1.24,1.24Z"/>
    <path class="cls-2" d="M402.83,219.41c-3.84,0-6.96,3.12-6.96,6.96s3.12,6.96,6.96,6.96,6.96-3.12,6.96-6.96-3.12-6.96-6.96-6.96ZM402.83,232.44c-3.34,0-6.07-2.72-6.07-6.07s2.72-6.07,6.07-6.07,6.07,2.72,6.07,6.07-2.72,6.07-6.07,6.07Z"/>
  </g>
</svg>