<?xml version="1.0" encoding="utf-8"?>
<!-- Generator: Adobe Illustrator 24.3.0, SVG Export Plug-In . SVG Version: 6.00 Build 0)  -->
<svg version="1.1" id="Layer_1" xmlns="http://www.w3.org/2000/svg" xmlns:xlink="http://www.w3.org/1999/xlink" x="0px" y="0px"
	 viewBox="0 0 512 512" style="enable-background:new 0 0 512 512;" xml:space="preserve">
<style type="text/css">
	.st0{fill:#D81E00;}
</style>
<g id="XMLID_1_">
	<g id="XMLID_2_">
		<polyline id="XMLID_12_" points="315.08,226.23 296.11,226.23 296.11,232.32 302.34,232.32 302.34,251.29 271.05,251.29 
			271.05,232.32 277.42,232.32 277.42,226.23 258.45,226.23 258.45,232.32 263.85,232.32 263.85,280.92 258.45,280.92 
			258.45,287.01 277.42,287.01 277.42,280.92 271.05,280.92 271.05,258.08 302.34,258.08 302.34,280.92 296.11,280.92 
			296.11,287.01 315.08,287.01 315.08,280.92 309.54,280.92 309.54,232.32 315.08,232.32 315.08,226.23 		"/>
		<path id="XMLID_3_" d="M326.02,261.82c0.55-3.88,1.94-6.78,4.29-8.86c2.22-2.08,5.54-3.74,9.41-3.74c3.74,0,7.34,1.25,9.69,3.32
			c2.22,2.08,3.46,5.4,4.02,9.28h-26.86 M339.86,243.54c-6.37,0-11.49,1.94-15.37,5.95c-3.88,4.02-5.82,9.28-5.82,15.78
			c0,6.78,1.94,12.32,5.82,16.48c3.88,4.15,9,6.23,15.23,6.23c4.57,0,8.58-1.25,12.18-3.6c3.6-2.49,6.37-5.82,8.17-10.11h-6.92
			c-1.38,2.22-2.77,4.15-4.98,5.4c-2.08,1.25-4.85,2.22-7.34,2.22c-4.02,0-7.75-1.8-10.38-4.29c-2.63-2.49-4.15-5.68-4.43-9.55
			h35.03v-0.97c0-7.06-1.94-12.88-5.82-17.17C351.36,245.62,346.23,243.54,339.86,243.54"/>
		<path id="XMLID_4_" d="M388.18,281.89c-4.02,0-7.34-1.52-10.11-4.57c-2.77-3.05-4.02-6.92-4.02-11.63s1.38-8.58,4.02-11.63
			s6.09-4.57,10.25-4.57c4.02,0,7.34,1.52,10.11,4.57c2.63,3.05,4.02,6.92,4.02,11.49c0,4.71-1.38,8.58-4.02,11.63
			C395.66,280.37,392.34,281.89,388.18,281.89 M387.77,243.54c-5.82,0-10.66,2.08-14.54,6.37c-3.88,4.29-5.95,9.55-5.95,15.78
			c0,6.23,1.94,11.49,5.95,15.78c3.88,4.29,8.86,6.37,14.68,6.37c3.05,0,5.68-0.55,8.03-1.66c2.35-1.11,4.43-2.77,5.95-4.98v5.68
			h13.57v-6.37h-6.09v-29.49h6.09v-6.37h-13.57v5.54c-1.8-2.22-3.88-3.88-6.23-4.98C393.31,244.09,390.68,243.54,387.77,243.54"/>
		<path id="XMLID_7_" d="M431.1,225.4h-13.98v5.82h6.65v46.94c0.14,7.89,5.82,9.28,9.83,9.28c2.22,0,4.02-0.42,4.02-0.42v-5.82
			c0,0-0.55,0.14-1.52,0.14c-1.94,0-4.98-0.55-5.26-4.43v-51.5"/>
		<path id="XMLID_6_" d="M450.63,233.85h-6.78v9.97h-7.06v5.82h7.06v26.86c-0.14,8.86,5.26,10.66,8.31,10.66
			c1.25,0,2.35,0,3.32-0.14c0.97-0.14,3.6-0.14,4.43-0.28v-6.09c0,0-4.57,0.42-4.85,0.42c-1.94,0-3.18-0.28-3.74-0.97
			c-0.55-0.69-0.83-2.49-0.83-5.68v-1.25v-23.54h8.72v-5.82h-8.72v-9.97"/>
		<path id="XMLID_5_" d="M476.66,225.4H463.5v5.54h5.95v50.26h-5.95v5.82h19.11v-5.82h-6.78l0.14-23.26c1.25-5.12,7.06-9,12.46-9
			c0.42,0,0.83,0,1.25,0.14c2.08,0.28,5.12,0.97,6.65,2.77c1.11,1.25,3.88,2.77,4.02,12.05v17.45h-7.34v5.82h19.11v-5.82h-5.12
			l-0.14-17.86c0,0,0.55-9.28-4.15-14.68c-3.46-3.88-9.83-5.82-12.05-5.82c-2.49,0-5.26,0.14-7.61,1.25
			c-2.35,1.11-4.29,1.94-6.51,4.15V225.4"/>
	</g>
	<g id="XMLID_13_">
		<g id="XMLID_14_">
			<path id="XMLID_15_" class="st0" d="M115.43,224.71c-9.83,0-17.45,2.77-22.84,8.17c-5.4,5.4-8.03,13.15-8.03,23.4
				c0,7.61,1.52,13.85,4.57,18.69c3.05,4.85,6.65,8.31,10.94,10.25c4.15,1.94,9.69,2.91,16.34,2.91c5.54,0,9.97-0.83,13.57-2.35
				c3.6-1.52,6.51-3.88,8.86-7.06c2.35-3.18,6.09-9.28,6.09-15.09l-17.72-0.28c-0.83,3.88-1.8,5.54-3.74,7.61
				c-1.8,2.08-4.57,3.05-8.17,3.05c-3.74,0-6.65-1.25-8.72-3.74s-3.05-7.2-3.05-13.98c0-5.54,0.83-9.55,2.63-12.05
				c2.22-3.46,5.54-5.12,9.83-5.12c1.94,0,3.6,0.42,5.12,1.11c1.52,0.83,2.77,1.94,3.88,3.32c0.69,0.83,1.25,2.22,1.8,4.15
				l18.14,0.28c-1.66-9.83-6.78-15.23-11.21-18.28C129.14,226.23,123.05,224.71,115.43,224.71"/>
			<polyline id="XMLID_16_" class="st0" points="201.13,225.82 181.89,225.82 171.23,264.86 161.12,225.82 141.32,225.82 
				160.84,287.01 181.34,287.01 201.13,225.82 			"/>
			<path id="XMLID_17_" class="st0" d="M225.78,224.71c-6.37,0-11.35,0.83-15.09,2.35c-3.6,1.66-7.2,3.74-9,6.51
				c-1.8,2.77-2.77,5.82-2.77,8.86c0,4.85,1.52,9.41,4.98,12.6c4.15,4.02,10.11,5.82,18.41,7.75c5.12,1.11,8.86,1.38,10.25,2.63
				c1.38,1.25,1.11,2.77,1.11,4.29c-0.14,3.32-4.71,4.43-7.48,4.57h-0.14c-6.23,0-8.72-4.15-9.14-7.06H198.5
				c0.55,6.23,1.8,10.8,5.82,14.81c4.02,4.02,11.21,5.95,21.6,5.95c5.95,0,10.8-0.83,14.68-2.63c3.88-1.66,6.92-4.15,9.14-7.48
				c2.22-3.32,3.32-6.92,3.32-10.8c0-3.32-0.83-6.37-2.49-9c-1.66-2.63-4.43-4.29-8.03-6.09c-3.6-1.8-9.69-3.32-18-5.12
				c-3.32-0.69-6.65-1.8-6.65-5.4c0.14-2.22,3.6-4.29,5.82-4.29c4.02,0,8.86,2.08,8.86,6.37l18.14-0.14
				c-0.83-6.37-3.05-11.35-7.2-14.26C239.62,226.23,233.67,224.71,225.78,224.71"/>
		</g>
		<path id="XMLID_18_" class="st0" d="M76.11,240.35c-3.18-3.18-13.15-12.74-15.92-15.65c-0.55-0.55-1.25-0.83-1.94-0.83h-5.4
			c-0.69,0-1.52,0.28-1.94,0.83l-11.49,12.18l-0.83,0.14l-0.83-0.14l-11.49-12.18c-0.55-0.55-1.25-0.83-1.94-0.83h-5.4
			c-0.69,0-1.38,0.28-1.94,0.83c-2.91,2.77-12.74,12.46-15.92,15.65c-0.69,0.69-0.97,1.52-0.97,2.35v5.82c0,0.97,0.42,1.8,0.97,2.35
			l37.66,37.11l37.66-37.11c0.69-0.69,0.97-1.52,0.97-2.35v-5.82C77.08,241.88,76.66,241.05,76.11,240.35z"/>
	</g>
</g>
</svg>
