<?xml version="1.0" encoding="UTF-8"?>
<svg id="Layer_1" data-name="Layer 1" xmlns="http://www.w3.org/2000/svg" viewBox="0 0 204 60">
  <defs>
    <style>
      .cls-1 {
        fill: #22366d;
        stroke-width: 0px;
      }
    </style>
  </defs>
  <g>
    <path class="cls-1" d="m86.54,45.02c0,1.59-.53,2.96-1.57,4.06-1.05,1.1-2.37,1.66-3.95,1.66h-4.56v-11.44h4.56c1.58,0,2.9.56,3.95,1.65,1.04,1.1,1.57,2.47,1.57,4.07Zm-2.06,0c0-1.08-.32-1.97-.97-2.66-.64-.69-1.48-1.03-2.5-1.03h-2.43v7.39h2.43c1.02,0,1.86-.35,2.5-1.04.64-.7.97-1.59.97-2.65Zm10.5,1.77c0,.64-.19,1.16-.56,1.53s-.95.57-1.71.57-1.34-.19-1.71-.57-.56-.89-.56-1.53v-7.49h-2.12v7.61c0,1.23.42,2.22,1.23,2.95.81.73,1.88,1.1,3.16,1.1s2.35-.37,3.16-1.1c.82-.73,1.24-1.72,1.24-2.95v-7.61h-2.12v7.49Zm13.01.62c0,.95-.35,1.75-1.03,2.38-.68.63-1.51.95-2.49.95h-4.96v-11.44h4.61c.95,0,1.77.31,2.43.92.67.62,1,1.39,1,2.31s-.35,1.7-1.03,2.26c.43.26.77.59,1.03,1,.29.47.44,1.01.44,1.62Zm-6.35-3.46h2.48c.37,0,.68-.12.93-.38.26-.26.38-.57.38-.95s-.12-.69-.38-.95c-.25-.26-.56-.38-.93-.38h-2.48v2.66Zm4.23,3.36c0-.4-.13-.74-.4-1.02-.27-.28-.59-.41-.99-.41h-2.84v2.85h2.84c.4,0,.72-.13.99-.41s.4-.61.4-1.01Zm15.11,3.42h2.12v-11.44h-2.12v11.44Zm15.49-6.86h-4.73v-4.58h-2.12v11.44h2.12v-4.84h4.73v4.84h2.12v-11.44h-2.12v4.58Zm6.65,2.09h4.68v-2.01h-4.68v-2.63h5.08v-2.03h-7.2v11.44h7.28v-2.03h-5.16v-2.74Zm20.65-6.67h-2.12v11.44h6.7v-2.03h-4.58v-9.42Zm4.23,2.03h3.18v9.42h2.12v-9.42h3.17v-2.03h-8.47v2.03Zm16.97-2.03v4.58h-4.73v-4.58h-2.12v11.44h2.12v-4.84h4.73v4.84h2.12v-11.44h-2.12Zm-65.43,11.44h-2.3l-.79-2.25h-4.59l-.79,2.25h-2.3l4.18-11.44h2.39l4.18,11.44Zm-3.79-4.25l-1.59-4.5-1.59,4.5h3.17Zm44.46,4.25h-2.3l-.79-2.25h-4.59l-.79,2.25h-2.3l4.18-11.44h2.39l4.18,11.44Zm-3.79-4.25l-1.59-4.5-1.59,4.5h3.17Zm-21.44-26.83v11.44h2.12v-11.44h-2.12Zm-2.97,11.44h-51.01c-2.6,0-4.7-2.12-4.7-4.71s2.11-4.7,4.7-4.7h2.43v-1.1h2.12v8.39h4.59v-7.29h2.12v7.29h12.79v-2.61c0-1.41-1.15-2.56-2.56-2.56h-5.65v-2.12h5.65c2.58,0,4.68,2.09,4.68,4.68v2.62h4.59v-8.39h2.12v1.1h6.74c2.58,0,4.68,2.09,4.68,4.68v2.62h4.59v-9.32h2.12v11.44Zm-8.83-4.74c0-1.41-1.15-2.56-2.56-2.56h-6.74v5.17h9.3v-2.61Zm-42.18,2.61h2.43v-5.17h-2.43c-1.43,0-2.59,1.16-2.59,2.58s1.16,2.59,2.59,2.59Zm91.36-7.29v7.29h-4.56v-7.29h-3.69c-2.84,0-4.96,2.06-4.96,4.91v2.39h-10.84c-1.41,0-2.56-1.15-2.56-2.56v-4.73h-2.12v4.74c0,2.58,2.09,4.68,4.68,4.68h12.97v-4.51c0-2,1.59-2.79,2.84-2.79h1.57v7.29h8.81v-9.41h-2.12Zm10.06,0h-3.61v2.12h3.61c1.41,0,2.56,1.15,2.56,2.56v2.61h-7.53v2.12h9.65v-4.74c0-2.58-2.09-4.68-4.68-4.68Zm-94.23,12.35l1.5,1.5,1.5-1.5-1.5-1.5-1.5,1.5Zm3.03,0l1.5,1.5,1.5-1.5-1.5-1.5-1.5,1.5Zm58.96,0l1.5,1.5,1.5-1.5-1.5-1.5-1.5,1.5Zm3.03,0l1.5,1.5,1.5-1.5-1.5-1.5-1.5,1.5Zm18.73,0l1.5,1.5,1.5-1.5-1.5-1.5-1.5,1.5Zm-93.27-15.97l1.5,1.5,1.5-1.5-1.5-1.5-1.5,1.5Zm3.03,0l1.5,1.5,1.5-1.5-1.5-1.5-1.5,1.5Z"/>
    <path class="cls-1" d="m65.39,47.57v3.38H21.14v-3.38h44.25Zm-9.35-31.5c-.16-.02-.22.21-.07.27,1.92.81,6.02,3.24,6.02,10.41v17.43h3.4s0-17.84,0-17.84c0-5.75-4.75-9.76-9.35-10.28Zm-5.13,0c-2.9.32-5.86,2.05-7.65,4.71-1.79-2.67-4.75-4.39-7.65-4.71-.16-.02-.22.21-.07.27,1.92.81,6.02,3.24,6.02,10.41v17.43h3.4v-17.43c0-7.17,4.1-9.6,6.02-10.41.15-.06.09-.28-.07-.27Zm-19.56.9v27.21s3.4,0,3.4,0v-26.81c0-7.17,4.1-9.6,6.02-10.41.15-.06.09-.28-.07-.27-4.59.51-9.35,4.53-9.35,10.28Zm-10.21,9.37v17.84s3.4,0,3.4,0v-17.43c0-7.17,4.1-9.6,6.02-10.41.15-.06.09-.28-.07-.27-4.59.51-9.35,4.53-9.35,10.28ZM45.83,6.7c-.16-.02-.22.21-.07.27,1.92.81,6.02,3.24,6.02,10.41v26.81h3.4s0-27.21,0-27.21c0-5.75-4.75-9.76-9.35-10.28Z"/>
  </g>
  <g>
    <path class="cls-1" d="m86.54,45.02c0,1.59-.53,2.96-1.57,4.06-1.05,1.1-2.37,1.66-3.95,1.66h-4.56v-11.44h4.56c1.58,0,2.9.56,3.95,1.65,1.04,1.1,1.57,2.47,1.57,4.07Zm-2.06,0c0-1.08-.32-1.97-.97-2.66-.64-.69-1.48-1.03-2.5-1.03h-2.43v7.39h2.43c1.02,0,1.86-.35,2.5-1.04.64-.7.97-1.59.97-2.65Zm10.5,1.77c0,.64-.19,1.16-.56,1.53s-.95.57-1.71.57-1.34-.19-1.71-.57-.56-.89-.56-1.53v-7.49h-2.12v7.61c0,1.23.42,2.22,1.23,2.95.81.73,1.88,1.1,3.16,1.1s2.35-.37,3.16-1.1c.82-.73,1.24-1.72,1.24-2.95v-7.61h-2.12v7.49Zm13.01.62c0,.95-.35,1.75-1.03,2.38-.68.63-1.51.95-2.49.95h-4.96v-11.44h4.61c.95,0,1.77.31,2.43.92.67.62,1,1.39,1,2.31s-.35,1.7-1.03,2.26c.43.26.77.59,1.03,1,.29.47.44,1.01.44,1.62Zm-6.35-3.46h2.48c.37,0,.68-.12.93-.38.26-.26.38-.57.38-.95s-.12-.69-.38-.95c-.25-.26-.56-.38-.93-.38h-2.48v2.66Zm4.23,3.36c0-.4-.13-.74-.4-1.02-.27-.28-.59-.41-.99-.41h-2.84v2.85h2.84c.4,0,.72-.13.99-.41s.4-.61.4-1.01Zm15.11,3.42h2.12v-11.44h-2.12v11.44Zm15.49-6.86h-4.73v-4.58h-2.12v11.44h2.12v-4.84h4.73v4.84h2.12v-11.44h-2.12v4.58Zm6.65,2.09h4.68v-2.01h-4.68v-2.63h5.08v-2.03h-7.2v11.44h7.28v-2.03h-5.16v-2.74Zm20.65-6.67h-2.12v11.44h6.7v-2.03h-4.58v-9.42Zm4.23,2.03h3.18v9.42h2.12v-9.42h3.17v-2.03h-8.47v2.03Zm16.97-2.03v4.58h-4.73v-4.58h-2.12v11.44h2.12v-4.84h4.73v4.84h2.12v-11.44h-2.12Zm-65.43,11.44h-2.3l-.79-2.25h-4.59l-.79,2.25h-2.3l4.18-11.44h2.39l4.18,11.44Zm-3.79-4.25l-1.59-4.5-1.59,4.5h3.17Zm44.46,4.25h-2.3l-.79-2.25h-4.59l-.79,2.25h-2.3l4.18-11.44h2.39l4.18,11.44Zm-3.79-4.25l-1.59-4.5-1.59,4.5h3.17Zm-21.44-26.83v11.44h2.12v-11.44h-2.12Zm-2.97,11.44h-51.01c-2.6,0-4.7-2.12-4.7-4.71s2.11-4.7,4.7-4.7h2.43v-1.1h2.12v8.39h4.59v-7.29h2.12v7.29h12.79v-2.61c0-1.41-1.15-2.56-2.56-2.56h-5.65v-2.12h5.65c2.58,0,4.68,2.09,4.68,4.68v2.62h4.59v-8.39h2.12v1.1h6.74c2.58,0,4.68,2.09,4.68,4.68v2.62h4.59v-9.32h2.12v11.44Zm-8.83-4.74c0-1.41-1.15-2.56-2.56-2.56h-6.74v5.17h9.3v-2.61Zm-42.18,2.61h2.43v-5.17h-2.43c-1.43,0-2.59,1.16-2.59,2.58s1.16,2.59,2.59,2.59Zm91.36-7.29v7.29h-4.56v-7.29h-3.69c-2.84,0-4.96,2.06-4.96,4.91v2.39h-10.84c-1.41,0-2.56-1.15-2.56-2.56v-4.73h-2.12v4.74c0,2.58,2.09,4.68,4.68,4.68h12.97v-4.51c0-2,1.59-2.79,2.84-2.79h1.57v7.29h8.81v-9.41h-2.12Zm10.06,0h-3.61v2.12h3.61c1.41,0,2.56,1.15,2.56,2.56v2.61h-7.53v2.12h9.65v-4.74c0-2.58-2.09-4.68-4.68-4.68Zm-94.23,12.35l1.5,1.5,1.5-1.5-1.5-1.5-1.5,1.5Zm3.03,0l1.5,1.5,1.5-1.5-1.5-1.5-1.5,1.5Zm58.96,0l1.5,1.5,1.5-1.5-1.5-1.5-1.5,1.5Zm3.03,0l1.5,1.5,1.5-1.5-1.5-1.5-1.5,1.5Zm18.73,0l1.5,1.5,1.5-1.5-1.5-1.5-1.5,1.5Zm-93.27-15.97l1.5,1.5,1.5-1.5-1.5-1.5-1.5,1.5Zm3.03,0l1.5,1.5,1.5-1.5-1.5-1.5-1.5,1.5Z"/>
    <path class="cls-1" d="m65.39,47.57v3.38H21.14v-3.38h44.25Zm-9.35-31.5c-.16-.02-.22.21-.07.27,1.92.81,6.02,3.24,6.02,10.41v17.43h3.4s0-17.84,0-17.84c0-5.75-4.75-9.76-9.35-10.28Zm-5.13,0c-2.9.32-5.86,2.05-7.65,4.71-1.79-2.67-4.75-4.39-7.65-4.71-.16-.02-.22.21-.07.27,1.92.81,6.02,3.24,6.02,10.41v17.43h3.4v-17.43c0-7.17,4.1-9.6,6.02-10.41.15-.06.09-.28-.07-.27Zm-19.56.9v27.21s3.4,0,3.4,0v-26.81c0-7.17,4.1-9.6,6.02-10.41.15-.06.09-.28-.07-.27-4.59.51-9.35,4.53-9.35,10.28Zm-10.21,9.37v17.84s3.4,0,3.4,0v-17.43c0-7.17,4.1-9.6,6.02-10.41.15-.06.09-.28-.07-.27-4.59.51-9.35,4.53-9.35,10.28ZM45.83,6.7c-.16-.02-.22.21-.07.27,1.92.81,6.02,3.24,6.02,10.41v26.81h3.4s0-27.21,0-27.21c0-5.75-4.75-9.76-9.35-10.28Z"/>
  </g>
</svg>