<?xml version="1.0" encoding="UTF-8"?><svg id="Layer_1" xmlns="http://www.w3.org/2000/svg" viewBox="0 0 1246.26 209.79"><defs><style>.cls-1{fill:#0fe4bd;}.cls-1,.cls-2{stroke-width:0px;}.cls-2{fill:#fff;}</style></defs><path class="cls-2" d="M252.91,4.31h152.32v40.24h-109.21v38.8h83.34v38.8h-83.34v40.23h109.21v43.11h-152.32V4.31Z"/><path class="cls-2" d="M456.96,4.31h38.8l68.97,86.22L633.71,4.31h38.8v201.17h-43.11V73.28l-64.66,80.47-64.66-80.47v132.2h-43.11V4.31Z"/><path class="cls-2" d="M724.24,4.31h43.11v201.17h-43.11V4.31Z"/><path class="cls-2" d="M819.08,4.31h73.28c61.79,0,106.33,44.55,106.33,100.59s-44.55,100.58-106.33,100.58h-73.28V4.31ZM892.36,165.25c35.92,0,61.79-25.86,61.79-60.35s-25.86-60.35-61.79-60.35h-30.18v120.7h30.18Z"/><path class="cls-2" d="M1053.3,149.44c3.45,4.02,7.47,7.76,12.36,10.92,8.04,5.46,19.83,10.63,35.06,10.63,22.99,0,33.05-10.06,33.05-22.99,0-34.2-100.58-18.97-100.58-89.09C1033.19,27.3,1060.49,0,1106.47,0,1128.6,0,1145.84,6.9,1157.05,13.79c6.61,4.02,12.07,8.62,16.95,13.51l-28.74,28.74c-3.16-3.16-6.32-6.04-10.06-8.62-6.61-4.31-15.81-8.62-27.3-8.62-21.84,0-30.17,8.62-30.17,20.12,0,34.2,100.58,18.97,100.58,89.09,0,33.05-28.74,61.79-76.16,61.79-26.15,0-45.41-7.76-58.34-15.81-7.76-4.6-14.08-9.77-19.26-15.81l28.74-28.74Z"/><path class="cls-1" d="M201.17,37.67v81.32h-114.67V4.3h81.3c18.43,0,33.37,14.94,33.37,33.37Z"/><path class="cls-2" d="M151.45,118.97v64.95H36.29c-8.14,0-14.74-6.6-14.74-14.74V54.02h64.95v-21.56H0v139.64C0,190.54,14.94,205.48,33.37,205.48h139.64v-86.51h-21.56Z"/><g id="Flanklin_gothic_Light"><path class="cls-2" d="M1246.26,28.94c0,15.77-12.72,28.6-29.05,28.6s-28.83-12.84-28.83-28.6S1201.21,0,1217.2,0s29.05,12.95,29.05,28.94ZM1192.43,28.83c0,13.96,11.04,25.22,24.89,25.22s25-11.26,25-25.22-10.92-25.22-25-25.22-24.89,11.15-24.89,25.22ZM1210.22,30.97v13.18h-4.5V12.27h13.06c4.84,0,12.16,1.13,12.16,9.57,0,4.95-3.15,7.77-7.66,8.67l8.56,13.63h-5.63l-7.54-13.18h-8.45ZM1210.22,27.48h7.32c4.73,0,8.56-1.24,8.56-5.63,0-5.63-4.73-6.08-8.45-6.08h-7.43v11.71Z"/></g></svg>