<svg xmlns="http://www.w3.org/2000/svg" viewBox="0 0 612 111.05"><defs><style>.cls-1{fill:#ea7225;}</style></defs><title>MModalAsset 1</title><g id="Layer_2" data-name="Layer 2"><g id="svg6184"><g id="layer1"><g id="g4575"><g id="g4577"><g id="g4583"><path id="path4585" d="M556.81,44.6a6.34,6.34,0,0,0-2.26-4.68,6.24,6.24,0,0,0-4.84-2.11h-.6a5.15,5.15,0,0,0-2.72.45A6.89,6.89,0,0,0,544,40.07a9.86,9.86,0,0,0-1.51,2.41,6.65,6.65,0,0,0-.38,1.09,35.3,35.3,0,0,0-4.89-3.08,34.52,34.52,0,0,0-12.69-3.93,17.87,17.87,0,0,0-2.12-.15h-2.12a35.22,35.22,0,0,0-20.24,6,37,37,0,0,0-13.3,15.86,45.85,45.85,0,0,0-2.42,7.1,36.92,36.92,0,0,0-.75,7.55,39.19,39.19,0,0,0,.75,7.71,41,41,0,0,0,2.42,6.95A38.24,38.24,0,0,0,500,103.49a35.22,35.22,0,0,0,20.24,6,41.55,41.55,0,0,0,8.16-.75c1.31-.4,2.57-.81,3.78-1.2a36.85,36.85,0,0,0,3.47-1.36q.91-.45,2.87-1.51c1.31-.7,2.21-1.16,2.72-1.36a6.18,6.18,0,0,0,1.06,3.32,10.17,10.17,0,0,0,2.27,2,7.43,7.43,0,0,0,2.41.76,22.62,22.62,0,0,0,2.42.15,7.48,7.48,0,0,0,7.4-7.4V73q0-1.08-.06-2.16Zm-16.75,37a21.61,21.61,0,0,1-4.69,6.95,20.79,20.79,0,0,1-6.95,4.53,21.12,21.12,0,0,1-8.31,1.66,20.42,20.42,0,0,1-8-1.66,29.18,29.18,0,0,1-6.95-4.68,23.9,23.9,0,0,1-4.84-7A20,20,0,0,1,498.51,73a21.13,21.13,0,0,1,1.66-8.31A23.87,23.87,0,0,1,505,57.71,22.22,22.22,0,0,1,511.8,53a20,20,0,0,1,16.62,0,23.92,23.92,0,0,1,6.95,4.83,19.62,19.62,0,0,1,4.69,7A19.3,19.3,0,0,1,541.87,73a20.37,20.37,0,0,1-1.81,8.62"/></g></g></g><g id="g4587"><path id="path4589" d="M600.26,14.6h2.09v5.47h.86V14.6h2.09v-.74h-5Z"/></g><g id="g4599"><path id="path4601" d="M610.8,13.86,609,19.11l-1.78-5.25H606v6.21h.8V16.41q0-.22,0-.69c0-.31,0-.54,0-.69v-.19l1.79,5.24h.83l1.77-5.24c0,.33,0,.65,0,.94s0,.5,0,.63v3.67h.8V13.86Z"/></g><g id="g4603"><path id="path4605" class="cls-1" d="M154.52,70.3a12.13,12.13,0,1,0,12.13,12.13A12.13,12.13,0,0,0,154.52,70.3"/></g><g id="g4607"><path id="path4609" class="cls-1" d="M154.52,24.26a12.13,12.13,0,1,0-12.13-12.13,12.13,12.13,0,0,0,12.13,12.13"/></g><g id="g4611"><path id="path4613" class="cls-1" d="M191.12,15.73a9.31,9.31,0,0,0-18.62,0,17.42,17.42,0,0,1-17.42,17.42H154a17.42,17.42,0,0,1-17.42-17.42,9.31,9.31,0,0,0-18.62,0,36.57,36.57,0,0,0,17.8,31.4,36.58,36.58,0,0,0-17.87,31.44,9.31,9.31,0,0,0,18.62,0,17.42,17.42,0,0,1,17.42-17.42H155a17.42,17.42,0,0,1,17.42,17.42,9.31,9.31,0,0,0,18.61,0,36.57,36.57,0,0,0-17.8-31.4,36.57,36.57,0,0,0,17.87-31.44"/></g><g id="g4615"><path id="path4617" d="M380.87,48.8a37,37,0,0,0-11.63-7.86,32.54,32.54,0,0,0-13.9-3,39.11,39.11,0,0,0-14.51,3.32A37.08,37.08,0,0,0,329.2,49.1a35.45,35.45,0,0,0-7.86,11.49,37.87,37.87,0,0,0,.16,28.56,37,37,0,0,0,7.85,11.63A36.17,36.17,0,0,0,341,108.33a37.14,37.14,0,0,0,14.2,2.72,35.93,35.93,0,0,0,14.35-2.87A35.34,35.34,0,0,0,381,100.32a37.64,37.64,0,0,0,7.85-11.48,35.37,35.37,0,0,0,2.87-14.2,34,34,0,0,0-3-14.2,37,37,0,0,0-7.86-11.63m-5.74,34.3A22.89,22.89,0,0,1,363.5,94.88a21.11,21.11,0,0,1-8.31,1.66,22.24,22.24,0,0,1-8.46-1.66,23.93,23.93,0,0,1-7-4.84,25.46,25.46,0,0,1-4.68-6.95,22.23,22.23,0,0,1-1.66-8.46A21.93,21.93,0,0,1,335.09,66a23.39,23.39,0,0,1,4.68-6.8,21.72,21.72,0,0,1,7-4.68,22.18,22.18,0,0,1,8.46-1.66h.15a22.49,22.49,0,0,1,21.61,21.76,20.6,20.6,0,0,1-1.82,8.46"/></g><g id="g4619"><path id="path4621" d="M592.9,95.18A10.37,10.37,0,0,1,585,92a11.15,11.15,0,0,1-3-8V20.39a6.56,6.56,0,0,0-2.42-5.13,6.92,6.92,0,0,0-5-2.27,7.49,7.49,0,0,0-5.43,2.42,7.29,7.29,0,0,0-2.27,5V84a24.72,24.72,0,0,0,2,9.67,28.46,28.46,0,0,0,5.28,8.31,28,28,0,0,0,8,5.59,22.37,22.37,0,0,0,9.52,2.11h2.12a10.49,10.49,0,0,0,4.53-2.71,6.82,6.82,0,0,0,2.12-4.54A7.29,7.29,0,0,0,598,97.3a7,7,0,0,0-5.14-2.12"/></g><g id="g4623"><path id="path4625" d="M467.08,13.14h-.6a5.19,5.19,0,0,0-2.72.45,7,7,0,0,0-2.42,1.82,9.93,9.93,0,0,0-1.51,2.41,7.07,7.07,0,0,0-.6,2.87V43.06a34.23,34.23,0,0,0-11.63-5.29,44.19,44.19,0,0,0-10-1.36,37.08,37.08,0,0,0-13.9,2.72A41.93,41.93,0,0,0,411.48,47a39.59,39.59,0,0,0-8,11.63A37.31,37.31,0,0,0,400.9,73a35.49,35.49,0,0,0,2.87,14.2,39.32,39.32,0,0,0,8,11.63,37.13,37.13,0,0,0,11.64,7.86,35,35,0,0,0,14.05,2.87,33.64,33.64,0,0,0,13.75-2.87,55.38,55.38,0,0,0,7.81-4.41,6.59,6.59,0,0,0,2.42,5.14,7,7,0,0,0,5,2.27,7.53,7.53,0,0,0,5.44-2.42,7.31,7.31,0,0,0,2.26-5l0-82.31a6.34,6.34,0,0,0-2.26-4.69,6.24,6.24,0,0,0-4.84-2.11m-9.67,68.29a21.71,21.71,0,0,1-4.69,6.95,25.44,25.44,0,0,1-6.95,4.68,21.07,21.07,0,0,1-8.31,1.67A22.2,22.2,0,0,1,429,93.06a25.51,25.51,0,0,1-7-4.68,25.44,25.44,0,0,1-4.68-6.95A21.42,21.42,0,0,1,415.71,73a21.09,21.09,0,0,1,1.66-8.31,22.83,22.83,0,0,1,4.68-6.94A21.67,21.67,0,0,1,429,53a20.63,20.63,0,0,1,8.46-1.82A19.6,19.6,0,0,1,445.78,53a22.47,22.47,0,0,1,6.95,5A21.73,21.73,0,0,1,457.41,65a19,19,0,0,1,1.81,8,20,20,0,0,1-1.81,8.46"/></g><g id="g4627"><path id="path4629" d="M299.66,23.47A28.61,28.61,0,0,0,290.21,17a27.24,27.24,0,0,0-11.4-2.48,27.6,27.6,0,0,0-11.86,2.63,30.74,30.74,0,0,0-9.45,6.67c-.32.34-.62.7-.92,1-.39-.45-.77-.92-1.19-1.36A28.59,28.59,0,0,0,245.93,17a27.27,27.27,0,0,0-11.4-2.48,27.6,27.6,0,0,0-11.86,2.63,30.73,30.73,0,0,0-9.45,6.67,31.77,31.77,0,0,0-6.36,9.61,28.43,28.43,0,0,0-2.33,11.32v57.43a7.79,7.79,0,0,0,2.33,5.73,7.69,7.69,0,0,0,5.43,2.17,7.54,7.54,0,0,0,5.58-2.17,7.79,7.79,0,0,0,2.33-5.73v-56a14.39,14.39,0,0,1,1.09-5.58,15,15,0,0,1,3.1-4.65,14,14,0,0,1,4.65-3.1,12.84,12.84,0,0,1,11,0,12.46,12.46,0,0,1,4.49,3.1,12.2,12.2,0,0,1,3.1,4.65A12.83,12.83,0,0,1,248.82,45V88.77a7.78,7.78,0,0,0,2.33,5.74,7.7,7.7,0,0,0,5.42,2.17,7.56,7.56,0,0,0,5.58-2.17,7.78,7.78,0,0,0,2.31-5.36,9.4,9.4,0,0,0,.07-1.1V44.89a14.19,14.19,0,0,1,1-4.37,15.23,15.23,0,0,1,3.1-4.65,14.07,14.07,0,0,1,4.65-3.1,12.83,12.83,0,0,1,11,0,12.52,12.52,0,0,1,4.5,3.1,12.32,12.32,0,0,1,3.1,4.65,13,13,0,0,1,1.24,5.58v55.3a7.46,7.46,0,0,0,7.9,7.9,7.68,7.68,0,0,0,5.42-2.17,7.79,7.79,0,0,0,2.33-5.74V44.86A31.62,31.62,0,0,0,306,33.24a31.31,31.31,0,0,0-6.36-9.76"/></g><g id="g4631"><path id="path4633" d="M95.12,23.47A28.61,28.61,0,0,0,85.67,17a27.24,27.24,0,0,0-11.4-2.48,27.62,27.62,0,0,0-11.86,2.63A30.74,30.74,0,0,0,53,23.78c-.32.34-.61.7-.92,1-.39-.45-.77-.92-1.19-1.36A28.64,28.64,0,0,0,41.39,17,27.24,27.24,0,0,0,30,14.49a27.58,27.58,0,0,0-11.86,2.63,30.7,30.7,0,0,0-9.45,6.67,31.7,31.7,0,0,0-6.36,9.61A28.43,28.43,0,0,0,0,44.71v57.43a7.79,7.79,0,0,0,2.32,5.73A7.68,7.68,0,0,0,7.75,110a7.55,7.55,0,0,0,5.58-2.17,7.79,7.79,0,0,0,2.33-5.73v-56a14.45,14.45,0,0,1,1.09-5.58,15.16,15.16,0,0,1,3.1-4.65,14.07,14.07,0,0,1,4.65-3.1,12.85,12.85,0,0,1,11,0A12.48,12.48,0,0,1,40,35.87a12.25,12.25,0,0,1,3.11,4.65A12.82,12.82,0,0,1,44.28,45V88.77a7.79,7.79,0,0,0,2.33,5.74A7.7,7.7,0,0,0,52,96.68a7.55,7.55,0,0,0,5.58-2.17,7.74,7.74,0,0,0,2.31-5.35A8.8,8.8,0,0,0,60,88V44.88a14.25,14.25,0,0,1,1-4.36,15.29,15.29,0,0,1,3.1-4.65,14.07,14.07,0,0,1,4.65-3.1,12.84,12.84,0,0,1,11,0,12.51,12.51,0,0,1,4.5,3.1,12.28,12.28,0,0,1,3.1,4.65,13,13,0,0,1,1.24,5.58v55.3a7.46,7.46,0,0,0,7.9,7.9,7.69,7.69,0,0,0,5.43-2.17,7.8,7.8,0,0,0,2.32-5.74V44.86a31.41,31.41,0,0,0-2.78-11.62,31.24,31.24,0,0,0-6.36-9.76"/></g></g></g></g></svg>