<svg xmlns="http://www.w3.org/2000/svg" viewBox="0 0 612 125.46"><defs><style>.cls-1{fill:#231f20;}</style></defs><title>Asset 1</title><g id="Layer_2" data-name="Layer 2"><g id="svg2"><g id="g10"><g id="g12"><path id="path14" class="cls-1" d="M294.81,31.93V69L247.38,29.27V93.56H259.6V56.49L307,96.19V31.93Z"/></g><g id="g16"><g id="g18"><g id="g24"><path id="path26" class="cls-1" d="M358.72,72.31c0,6.61-4.56,11.63-10.8,11.63S337,78.92,337,72.31V39.68H325.18V72.76c0,12.7,7.77,22.13,22.74,22.13s22.66-9.43,22.66-22.13V39.68H358.72Z"/></g><g id="g28"><path id="path30" class="cls-1" d="M399.47,74.32l7.26-19,7.49,19Zm2.71-34.64L378.9,93.53H392l3.74-9.17h22.6L422,93.53h13.39L412,39.68Z"/></g><g id="g32"><path id="path34" class="cls-1" d="M486.62,69.55h-.15L447.55,37l0,2.67V93.53H459.4V63.63h.15l38.94,32.53V39.68H486.62Z"/></g><g id="g36"><path id="path38" class="cls-1" d="M539.84,83.94c-8.59,0-15.21-7.29-15.21-17.33s6.62-17.35,15.59-17.35a12.73,12.73,0,0,1,10.2,4.41l9.12-7.45c-4.56-5.85-12.17-7.9-18.18-7.9-16.8,0-29.06,11-29.06,28.29s12.25,28.29,29.06,28.29c7.38,0,15-3,19.47-9.36L551,78.16a12.88,12.88,0,0,1-11.11,5.78"/></g><g id="g40"><path id="path42" class="cls-1" d="M585.92,82.58v-11h23.34v-11H585.92v-10h24.72v-11H574.05V93.53H612v-11Z"/></g><g id="g44"><path id="path46" class="cls-1" d="M61.41,32c27.17,0,61.24,25.13,61.24,25.13V54.52S89.33,0,27.25,0H8.15C3.65,0,0,3.32,0,7.4V59.11c0,4.09,3.65,7.41,8.15,7.41H61.4Z"/></g><g id="g48"><path id="path50" class="cls-1" d="M151.88,93.48c-27.17,0-61.23-25.12-61.23-25.12v2.58S124,125.46,186,125.46h19.1c4.5,0,8.15-3.32,8.15-7.4V66.35c0-4.09-3.65-7.41-8.15-7.41H151.88Z"/></g><g id="g52"><path id="path54" class="cls-1" d="M232.56,118.27h1.28c1.07,0,2.05-.05,2.05-1.29,0-1-.89-1.2-1.71-1.2h-1.62Zm-1.22-3.47h3c1.86,0,2.74.74,2.74,2.24a2,2,0,0,1-2.06,2.13l2.24,3.46H236l-2.14-3.37h-1.29v3.37h-1.22Zm2.61,9.64a5.72,5.72,0,1,0-5.54-5.76,5.54,5.54,0,0,0,5.54,5.76M234,112a6.71,6.71,0,1,1-6.75,6.67A6.67,6.67,0,0,1,234,112"/></g></g></g></g></g></g></svg>