<svg xmlns="http://www.w3.org/2000/svg" xmlns:xlink="http://www.w3.org/1999/xlink" width="207.403" height="22.299" viewBox="0 0 207.403 22.299"><defs><clipPath id="a"><rect width="207.403" height="22.299" fill="none"/></clipPath></defs><g clip-path="url(#a)"><path d="M444.873,0H434.215V22.3h10.658c6.824,0,11.046-5.237,11.046-11.167,0-6-4.221-11.132-11.046-11.132m0,19-7,.24V3.294h7c4.573,0,7.176,3.815,7.176,7.873,0,4.023-2.6,7.837-7.176,7.837" transform="translate(-353.907 0)" fill="#fe5000"/><path d="M0,3.294H8.829v19h3.659v-19h6.87L21.282,0V0H0Z" transform="translate(0 0)" fill="#fe5000"/><path d="M1012.462,12.8h12.77V9.468h-12.77V3.295h15.247L1029.629,0H1008.8V22.3h20.825V19h-17.167Z" transform="translate(-822.226 -0.001)" fill="#fe5000"/><path d="M158.327,12.762c3.8-.312,5.453-3.191,5.453-6.347,0-3.433-2.11-6.416-6.191-6.416H142.075V22.3h3.658V12.8h8.091l5.558,9.5h4.081l-5.593-9.537h.457Zm-.739-3.295H145.733V3.294h11.855c1.759,0,2.533,1.526,2.533,3.156,0,1.7-.7,3.017-2.533,3.017" transform="translate(-115.798 0)" fill="#fe5000"/><path d="M874.3,11.168c0-4.058,2.6-7.873,7.176-7.873h7.048L890.448,0h-8.972c-6.824,0-11.046,5.132-11.046,11.132,0,5.93,4.221,11.167,11.046,11.167h8.972V19.005h-8.972c-4.573,0-7.176-3.815-7.176-7.837" transform="translate(-709.444 -0.001)" fill="#fe5000"/><path d="M743.026,0V16.577L728.85,0H725.4V22.3h3.659V5.688L743.237,22.3h3.447V0h-3.658Z" transform="translate(-591.239 0)" fill="#fe5000"/><path d="M599.951,3.295,601.871,0H581.046V22.3h20.825V19H584.7V12.8h12.77V9.468H584.7V3.295Z" transform="translate(-473.582 0)" fill="#fe5000"/><path d="M308.763,3.295,310.683,0H289.858V22.3h20.825V19H293.516V12.8h12.77V9.468h-12.77V3.295Z" transform="translate(-236.249 0)" fill="#fe5000"/></g></svg>